<?xml version="1.0" encoding="UTF-8" standalone="no"?>
<!-- Created with Inkscape (http://www.inkscape.org/) -->

<svg
   width="504mm"
   height="73mm"
   viewBox="0 0 504 73"
   version="1.1"
   id="svg1"
   inkscape:version="1.3.2 (091e20ef0f, 2023-11-25, custom)"
   sodipodi:docname="ARCH LINUX GLITCH.svg"
   xmlns:inkscape="http://www.inkscape.org/namespaces/inkscape"
   xmlns:sodipodi="http://sodipodi.sourceforge.net/DTD/sodipodi-0.dtd"
   xmlns="http://www.w3.org/2000/svg"
   xmlns:svg="http://www.w3.org/2000/svg">
  <sodipodi:namedview
     id="namedview1"
     pagecolor="#ffffff"
     bordercolor="#000000"
     borderopacity="0.25"
     inkscape:showpageshadow="2"
     inkscape:pageopacity="0.0"
     inkscape:pagecheckerboard="0"
     inkscape:deskcolor="#d1d1d1"
     inkscape:document-units="px"
     showborder="false"
     inkscape:zoom="0.25000001"
     inkscape:cx="609.99998"
     inkscape:cy="419.99999"
     inkscape:window-width="1920"
     inkscape:window-height="1008"
     inkscape:window-x="0"
     inkscape:window-y="0"
     inkscape:window-maximized="1"
     inkscape:current-layer="layer1" />
  <defs
     id="defs1">
    <rect
       x="219.91797"
       y="436.53516"
       width="246.29762"
       height="21.699503"
       id="rect1" />
  </defs>
  <g
     inkscape:label="Layer 1"
     inkscape:groupmode="layer"
     id="layer1">
    <g
       id="g129"
       style="display:inline;fill:#000080;fill-opacity:1"
       transform="matrix(2.7939478,0,0,2.7939478,-6.6522659,-292.29797)">
      <path
         id="path116"
         style="font-size:16px;letter-spacing:11.3219px;white-space:pre;shape-inside:url(#rect1);fill:#000080;fill-opacity:1"
         d="m 219.91771,445.93878 v 1.41007 h 13.33346 v -1.41007 h -5.33294 v 0.59631 h -2.66684 v -0.59631 z m 27.32221,0 v 1.41007 h 12.00004 v -0.81376 h 1.33342 v -0.59631 h -5.33368 v 0.59631 h -2.66684 v -0.59631 z m 27.32221,0 v 1.41007 h 5.33294 v -1.41007 z m 27.32147,0 v 1.41007 h 13.33346 v -1.41007 h -5.33368 v 0.59631 h -2.6661 v -0.59631 z m 46.6439,0 v 1.41007 h 5.33294 v -1.41007 z m 27.32221,0 v 1.41007 h 5.33294 v -1.41007 z m 19.32169,0 v 1.41007 h 5.33294 v -1.41007 z m 7.99978,0 v 1.41007 h 5.33368 v -1.41007 z m 19.32169,0 v 1.41007 h 5.33368 v -1.41007 z m 8.00052,0 v 1.41007 h 5.33294 v -1.41007 z m 19.32169,0 v 0.59631 h 1.33342 v 0.81376 h 10.66662 v -0.81376 h 1.33342 v -0.59631 h -5.33368 v 0.59631 h -2.6661 v -0.59631 z"
         transform="matrix(0.70107448,0,0,0.70107448,-147.28816,-195.92869)" />
      <path
         id="path117"
         style="font-size:16px;letter-spacing:11.3219px;white-space:pre;shape-inside:url(#rect1);fill:#000080;fill-opacity:1"
         d="m 219.91771,447.34885 v 4.11967 h 5.33368 v -2.26659 h 2.66684 v 2.26659 h 5.33294 v -4.11967 z m 27.32221,0 v 4.11967 h 5.33294 v -2.26659 h 2.66684 v 2.26659 h 5.33368 v -2.26659 h -1.33342 v -1.85308 z m 27.32221,0 v 4.11967 h 5.33294 v -4.11967 z m 27.32147,0 v 4.11967 h 5.33368 v -2.26659 h 2.6661 v 2.26659 h 5.33368 v -4.11967 z m 46.6439,0 v 4.11967 h 5.33294 v -4.11967 z m 27.32221,0 v 4.11967 h 5.33294 v -4.11967 z m 19.32169,0 v 4.11967 h 5.33294 v -4.11967 z m 7.99978,0 v 4.11967 h 5.33368 v -4.11967 z m 19.32169,0 v 4.11967 h 5.33368 v -4.11967 z m 8.00052,0 v 4.11967 h 5.33294 v -4.11967 z m 20.65511,0 v 1.85308 h -1.33342 v 2.26659 h 5.33368 v -2.26659 h 2.6661 v 2.26659 h 5.33368 v -2.26659 h -1.33342 v -1.85308 z"
         transform="matrix(0.70107448,0,0,0.70107448,-147.28816,-195.92869)" />
      <path
         id="path118"
         style="font-size:16px;letter-spacing:11.3219px;white-space:pre;shape-inside:url(#rect1);fill:#000080;fill-opacity:1"
         d="m 219.91771,445.12501 v 0.81377 h 5.33368 v -0.81377 z m 8.00052,0 v 0.81377 h 5.33294 v -0.81377 z m 19.32169,0 v 0.81377 h 5.33294 v -0.81377 z m 7.99978,0 v 0.81377 h 5.33368 v -0.81377 z m 19.32243,0 v 0.81377 h 5.33294 v -0.81377 z m 27.32147,0 v 0.81377 h 5.33368 v -0.81377 z m 7.99978,0 v 0.81377 h 5.33368 v -0.81377 z m 38.64412,0 v 0.81377 h 5.33294 v -0.81377 z m 27.32221,0 v 0.81377 h 5.33294 v -0.81377 z m 19.32169,0 v 0.81377 h 5.33294 v -0.81377 z m 7.99978,0 v 0.81377 h 5.33368 v -0.81377 z m 19.32169,0 v 0.81377 h 5.33368 v -0.81377 z m 8.00052,0 v 0.81377 h 5.33294 v -0.81377 z m 19.32169,0 v 0.81377 h 5.33368 v -0.81377 z m 7.99978,0 v 0.81377 h 5.33368 v -0.81377 z"
         transform="matrix(0.70107448,0,0,0.70107448,-147.28816,-195.92869)" />
      <path
         id="path119"
         style="font-size:16px;letter-spacing:11.3219px;white-space:pre;shape-inside:url(#rect1);fill:#000080;fill-opacity:1"
         d="m 219.91771,451.46852 v 1.09608 h 5.33368 v -1.09608 z m 8.00052,0 v 1.09608 h 5.33294 v -1.09608 z m 19.32169,0 v 1.09608 h 5.33294 v -1.09608 z m 7.99978,0 v 1.09608 h 5.33368 v -1.09608 z m 19.32243,0 v 1.09608 h 13.33272 v -0.69583 h -7.99978 v -0.40025 z m 27.32147,0 v 1.09608 h 5.33368 v -1.09608 z m 7.99978,0 v 1.09608 h 5.33368 v -1.09608 z m 38.64412,0 v 1.09608 h 13.33346 v -0.69583 h -8.00052 v -0.40025 z m 27.32221,0 v 1.09608 h 5.33294 v -1.09608 z m 19.32169,0 v 1.09608 h 5.33294 v -1.09608 z m 7.99978,0 v 1.09608 h 5.33368 v -1.09608 z m 19.32169,0 v 1.09608 h 13.33346 v -1.09608 h -5.33294 v 0.40025 h -2.66684 v -0.40025 z m 27.32221,0 v 1.09608 h 5.33368 v -1.09608 z m 7.99978,0 v 1.09608 h 5.33368 v -1.09608 z"
         transform="matrix(0.70107448,0,0,0.70107448,-147.28816,-195.92869)" />
      <path
         id="path120"
         style="font-size:16px;letter-spacing:11.3219px;white-space:pre;shape-inside:url(#rect1);fill:#000080;fill-opacity:1"
         d="m 219.91771,452.5646 v 1.97027 h 5.33368 v -1.97027 z m 8.00052,0 v 1.97027 h 5.33294 v -1.97027 z m 19.32169,0 v 1.97027 h 5.33294 v -1.97027 z m 7.99978,0 v 1.97027 h 5.33368 v -1.97027 z m 19.32243,0 v 0.63685 h 1.33268 v 1.33342 h 12.00004 v -1.97027 z m 27.32147,0 v 1.97027 h 5.33368 v -1.97027 z m 7.99978,0 v 1.97027 h 5.33368 v -1.97027 z m 38.64412,0 v 1.97027 h 13.33346 v -1.97027 z m 27.32221,0 v 1.97027 h 5.33294 v -1.97027 z m 19.32169,0 v 1.97027 h 5.33294 v -1.97027 z m 7.99978,0 v 1.97027 h 5.33368 v -1.97027 z m 19.32169,0 v 0.63685 h 1.33342 v 1.33342 h 10.66662 v -1.33342 h 1.33342 v -0.63685 z m 27.32221,0 v 1.97027 h 5.33368 v -1.97027 z m 7.99978,0 v 1.97027 h 5.33368 v -1.97027 z"
         transform="matrix(0.70107448,0,0,0.70107448,-147.28816,-195.92869)" />
      <path
         id="path121"
         style="font-size:16px;letter-spacing:11.3219px;white-space:pre;shape-inside:url(#rect1);fill:#000080;fill-opacity:1"
         d="m 219.91771,443.96039 v 1.16462 h 5.33368 v -1.16462 z m 8.00052,0 v 1.16462 h 5.33294 v -1.16462 z m 19.32169,0 v 1.16462 h 5.33294 v -1.16462 z m 7.99978,0 v 1.16462 h 5.33368 v -1.16462 z m 19.32243,0 v 1.16462 h 5.33294 v -1.16462 z m 27.32147,0 v 1.16462 h 5.33368 v -1.16462 z m 7.99978,0 v 1.16462 h 5.33368 v -1.16462 z m 38.64412,0 v 1.16462 h 5.33294 v -1.16462 z m 27.32221,0 v 1.16462 h 5.33294 v -1.16462 z m 19.32169,0 v 1.16462 h 5.33294 v -1.16462 z m 7.99978,0 v 1.16462 h 5.33368 v -1.16462 z m 19.32169,0 v 1.16462 h 5.33368 v -1.16462 z m 8.00052,0 v 1.16462 h 5.33294 v -1.16462 z m 19.32169,0 v 1.16462 h 5.33368 v -1.16462 z m 7.99978,0 v 1.16462 h 5.33368 v -1.16462 z"
         transform="matrix(0.70107448,0,0,0.70107448,-147.28816,-195.92869)" />
      <path
         id="path122"
         style="font-size:16px;letter-spacing:11.3219px;white-space:pre;shape-inside:url(#rect1);fill:#000080;fill-opacity:1"
         d="m 221.25113,441.20215 v 1.33268 h -1.33342 v 1.42556 h 5.33368 v -0.0921 h 2.66684 v 0.0921 h 5.33294 v -1.42556 h -1.33342 v -1.33268 z m 25.98879,0 v 2.75824 h 5.33294 v -0.0921 h 2.66684 v 0.0921 h 5.33368 v -1.42556 h -1.33342 v -1.33268 z m 28.65489,0 v 1.33268 h -1.33268 v 1.42556 h 5.33294 v -0.0921 h 7.99978 v -2.6661 z m 25.98879,0 v 2.75824 h 5.33368 v -2.75824 z m 7.99978,0 v 2.75824 h 5.33368 v -2.75824 z m 38.64412,0 v 2.75824 h 5.33294 v -2.75824 z m 27.32221,0 v 2.75824 h 5.33294 v -2.75824 z m 19.32169,0 v 2.75824 h 5.33294 v -0.0921 h 2.66684 v 0.0921 h 5.33368 v -1.42556 h -1.33342 v -1.33268 z m 27.32147,0 v 2.75824 h 5.33368 v -2.75824 z m 8.00052,0 v 2.75824 h 5.33294 v -2.75824 z m 19.32169,0 v 2.75824 h 5.33368 v -2.75824 z m 7.99978,0 v 2.75824 h 5.33368 v -2.75824 z"
         transform="matrix(0.70107448,0,0,0.70107448,-147.28816,-195.92869)" />
      <path
         id="path123"
         style="font-size:16px;letter-spacing:11.3219px;white-space:pre;shape-inside:url(#rect1);fill:#000080;fill-opacity:1;stroke-width:0.701074"
         d="m 7.4197008,116.70761 v 0.98856 h 9.3477482 v -0.98856 h -3.738788 v 0.41806 h -1.869653 v -0.41806 z m 19.1549042,0 v 0.98856 h 8.412922 v -0.5705 h 0.934827 v -0.41806 h -3.739307 v 0.41806 h -1.869654 v -0.41806 z m 19.154904,0 v 0.98856 h 3.738788 v -0.98856 z m 19.154386,0 v 0.98856 h 9.347748 v -0.98856 h -3.739307 v 0.41806 h -1.869135 v -0.41806 z m 32.700847,0 v 0.98856 h 3.738788 v -0.98856 z m 19.154908,0 v 0.98856 h 3.73878 v -0.98856 z m 13.54594,0 v 0.98856 h 3.73879 v -0.98856 z m 5.60844,0 v 0.98856 h 3.73931 v -0.98856 z m 13.54595,0 v 0.98856 h 3.7393 v -0.98856 z m 5.60896,0 v 0.98856 h 3.73878 v -0.98856 z m 13.54594,0 v 0.41806 h 0.93483 v 0.5705 h 7.47809 v -0.5705 h 0.93483 v -0.41806 h -3.73931 v 0.41806 h -1.86913 v -0.41806 z" />
      <path
         id="path124"
         style="font-size:16px;letter-spacing:11.3219px;white-space:pre;shape-inside:url(#rect1);fill:#000080;fill-opacity:1;stroke-width:0.701074"
         d="m 6.3613675,117.69617 v 2.8882 h 3.7393065 v -1.58905 h 1.869654 v 1.58905 h 3.738788 v -2.8882 z m 19.1549045,0 v 2.8882 h 3.738788 v -1.58905 h 1.869653 v 1.58905 h 3.739307 v -1.58905 h -0.934827 v -1.29915 z m 19.154904,0 v 2.8882 h 3.738788 v -2.8882 z m 19.154385,0 v 2.8882 h 3.739307 v -1.58905 h 1.869135 v 1.58905 h 3.739307 v -2.8882 z m 32.700848,0 v 2.8882 h 3.738791 v -2.8882 z m 19.154901,0 v 2.8882 h 3.73879 v -2.8882 z m 13.54595,0 v 2.8882 h 3.73879 v -2.8882 z m 5.60844,0 v 2.8882 h 3.73931 v -2.8882 z m 13.54594,0 v 2.8882 h 3.73931 v -2.8882 z m 5.60896,0 v 2.8882 h 3.73879 v -2.8882 z m 14.48077,0 v 1.29915 h -0.93482 v 1.58905 h 3.7393 v -1.58905 h 1.86914 v 1.58905 h 3.73931 v -1.58905 h -0.93483 v -1.29915 z" />
      <path
         id="path125"
         style="font-size:16px;letter-spacing:11.3219px;white-space:pre;shape-inside:url(#rect1);fill:#000080;fill-opacity:1"
         d="m 219.91771,445.12501 v 0.81377 h 5.33368 v -0.81377 z m 8.00052,0 v 0.81377 h 5.33294 v -0.81377 z m 19.32169,0 v 0.81377 h 5.33294 v -0.81377 z m 7.99978,0 v 0.81377 h 5.33368 v -0.81377 z m 19.32243,0 v 0.81377 h 5.33294 v -0.81377 z m 27.32147,0 v 0.81377 h 5.33368 v -0.81377 z m 7.99978,0 v 0.81377 h 5.33368 v -0.81377 z m 38.64412,0 v 0.81377 h 5.33294 v -0.81377 z m 27.32221,0 v 0.81377 h 5.33294 v -0.81377 z m 19.32169,0 v 0.81377 h 5.33294 v -0.81377 z m 7.99978,0 v 0.81377 h 5.33368 v -0.81377 z m 19.32169,0 v 0.81377 h 5.33368 v -0.81377 z m 8.00052,0 v 0.81377 h 5.33294 v -0.81377 z m 19.32169,0 v 0.81377 h 5.33368 v -0.81377 z m 7.99978,0 v 0.81377 h 5.33368 v -0.81377 z"
         transform="matrix(0.70107448,0,0,0.70107448,-147.28816,-195.92869)" />
      <path
         id="path126"
         style="font-size:16px;letter-spacing:11.3219px;white-space:pre;shape-inside:url(#rect1);fill:#000080;fill-opacity:1;stroke-width:0.701074"
         d="m 7.4197008,120.58437 v 0.76843 h 3.7393072 v -0.76843 z m 5.6089602,0 v 0.76843 h 3.738788 v -0.76843 z m 13.545944,0 v 0.76843 h 3.738788 v -0.76843 z m 5.608442,0 v 0.76843 h 3.739307 v -0.76843 z m 13.546462,0 v 0.76843 h 9.34723 v -0.48783 h -5.608442 v -0.2806 z m 19.154386,0 v 0.76843 h 3.739306 v -0.76843 z m 5.608441,0 v 0.76843 h 3.739307 v -0.76843 z m 27.092406,0 v 0.76843 h 9.347748 v -0.48783 h -5.60896 v -0.2806 z m 19.154908,0 v 0.76843 h 3.73878 v -0.76843 z m 13.54594,0 v 0.76843 h 3.73879 v -0.76843 z m 5.60844,0 v 0.76843 h 3.73931 v -0.76843 z m 13.54595,0 v 0.76843 h 9.34774 v -0.76843 h -3.73878 v 0.2806 h -1.86966 v -0.2806 z m 19.1549,0 v 0.76843 h 3.73931 v -0.76843 z m 5.60844,0 v 0.76843 h 3.73931 v -0.76843 z" />
      <path
         id="path127"
         style="font-size:16px;letter-spacing:11.3219px;white-space:pre;shape-inside:url(#rect1);fill:#000080;fill-opacity:1;stroke-width:0.701074"
         d="m 5.8322008,121.3528 v 1.38131 h 3.7393065 v -1.38131 z m 5.6089602,0 v 1.38131 h 3.738788 v -1.38131 z m 13.545944,0 v 1.38131 h 3.738788 v -1.38131 z m 5.608441,0 v 1.38131 h 3.739307 v -1.38131 z m 13.546463,0 v 0.44648 h 0.934308 v 0.93483 h 8.412922 v -1.38131 z m 19.154385,0 v 1.38131 h 3.739307 v -1.38131 z m 5.608442,0 v 1.38131 h 3.739307 v -1.38131 z m 27.092406,0 v 1.38131 h 9.347748 v -1.38131 z m 19.154898,0 v 1.38131 h 3.73879 v -1.38131 z m 13.54595,0 v 1.38131 h 3.73879 v -1.38131 z m 5.60844,0 v 1.38131 h 3.73931 v -1.38131 z m 13.54594,0 v 0.44648 h 0.93483 v 0.93483 h 7.47809 v -0.93483 h 0.93483 v -0.44648 z m 19.15491,0 v 1.38131 h 3.7393 v -1.38131 z m 5.60844,0 v 1.38131 h 3.73931 v -1.38131 z" />
      <path
         id="path128"
         style="font-size:16px;letter-spacing:11.3219px;white-space:pre;shape-inside:url(#rect1);fill:#000080;fill-opacity:1;stroke-width:0.701074"
         d="m 6.3613675,115.32061 v 0.81648 h 3.7393065 v -0.81648 z m 5.6089605,0 v 0.81648 h 3.738788 v -0.81648 z m 13.545944,0 v 0.81648 h 3.738788 v -0.81648 z m 5.608441,0 v 0.81648 h 3.739307 v -0.81648 z m 13.546463,0 v 0.81648 h 3.738788 v -0.81648 z m 19.154385,0 v 0.81648 h 3.739307 v -0.81648 z m 5.608442,0 v 0.81648 h 3.739307 v -0.81648 z m 27.092406,0 v 0.81648 h 3.738791 v -0.81648 z m 19.154901,0 v 0.81648 h 3.73879 v -0.81648 z m 13.54595,0 v 0.81648 h 3.73879 v -0.81648 z m 5.60844,0 v 0.81648 h 3.73931 v -0.81648 z m 13.54594,0 v 0.81648 h 3.73931 v -0.81648 z m 5.60896,0 v 0.81648 h 3.73879 v -0.81648 z m 13.54595,0 v 0.81648 h 3.7393 v -0.81648 z m 5.60844,0 v 0.81648 h 3.73931 v -0.81648 z" />
      <path
         id="path129"
         style="font-size:16px;letter-spacing:11.3219px;white-space:pre;shape-inside:url(#rect1);fill:#000080;fill-opacity:1;stroke-width:0.701074"
         d="m 8.3545276,113.38688 v 0.93431 H 7.4197008 v 0.99942 h 3.7393072 v -0.0646 h 1.869653 v 0.0646 h 3.738788 v -0.99942 h -0.934826 v -0.93431 z m 18.2200774,0 v 1.93373 h 3.738788 v -0.0646 h 1.869654 v 0.0646 h 3.739307 v -0.99942 h -0.934827 v -0.93431 z m 20.089212,0 v 0.93431 h -0.934308 v 0.99942 h 3.738788 v -0.0646 h 5.608442 v -1.86913 z m 18.220078,0 v 1.93373 h 3.739306 v -1.93373 z m 5.608441,0 v 1.93373 h 3.739307 v -1.93373 z m 27.092406,0 v 1.93373 h 3.738788 v -1.93373 z m 19.154908,0 v 1.93373 h 3.73878 v -1.93373 z m 13.54594,0 v 1.93373 h 3.73879 v -0.0646 h 1.86965 v 0.0646 h 3.73931 v -0.99942 h -0.93483 v -0.93431 z m 19.15439,0 v 1.93373 h 3.7393 v -1.93373 z m 5.60896,0 v 1.93373 h 3.73878 v -1.93373 z m 13.54594,0 v 1.93373 h 3.73931 v -1.93373 z m 5.60844,0 v 1.93373 h 3.73931 v -1.93373 z" />
    </g>
    <g
       id="g115"
       style="display:inline;fill:#7d2af6;fill-opacity:1"
       transform="matrix(2.7939478,0,0,2.7939478,-9.5168459,-292.29797)">
      <path
         id="path102"
         style="font-size:16px;letter-spacing:11.3219px;white-space:pre;shape-inside:url(#rect1);fill:#7d2af6;fill-opacity:1"
         d="m 219.91771,445.93878 v 1.41007 h 13.33346 v -1.41007 h -5.33294 v 0.59631 h -2.66684 v -0.59631 z m 27.32221,0 v 1.41007 h 12.00004 v -0.81376 h 1.33342 v -0.59631 h -5.33368 v 0.59631 h -2.66684 v -0.59631 z m 27.32221,0 v 1.41007 h 5.33294 v -1.41007 z m 27.32147,0 v 1.41007 h 13.33346 v -1.41007 h -5.33368 v 0.59631 h -2.6661 v -0.59631 z m 46.6439,0 v 1.41007 h 5.33294 v -1.41007 z m 27.32221,0 v 1.41007 h 5.33294 v -1.41007 z m 19.32169,0 v 1.41007 h 5.33294 v -1.41007 z m 7.99978,0 v 1.41007 h 5.33368 v -1.41007 z m 19.32169,0 v 1.41007 h 5.33368 v -1.41007 z m 8.00052,0 v 1.41007 h 5.33294 v -1.41007 z m 19.32169,0 v 0.59631 h 1.33342 v 0.81376 h 10.66662 v -0.81376 h 1.33342 v -0.59631 h -5.33368 v 0.59631 h -2.6661 v -0.59631 z"
         transform="matrix(0.70107448,0,0,0.70107448,-147.28816,-195.92869)" />
      <path
         id="path103"
         style="font-size:16px;letter-spacing:11.3219px;white-space:pre;shape-inside:url(#rect1);fill:#7d2af6;fill-opacity:1"
         d="m 219.91771,447.34885 v 4.11967 h 5.33368 v -2.26659 h 2.66684 v 2.26659 h 5.33294 v -4.11967 z m 27.32221,0 v 4.11967 h 5.33294 v -2.26659 h 2.66684 v 2.26659 h 5.33368 v -2.26659 h -1.33342 v -1.85308 z m 27.32221,0 v 4.11967 h 5.33294 v -4.11967 z m 27.32147,0 v 4.11967 h 5.33368 v -2.26659 h 2.6661 v 2.26659 h 5.33368 v -4.11967 z m 46.6439,0 v 4.11967 h 5.33294 v -4.11967 z m 27.32221,0 v 4.11967 h 5.33294 v -4.11967 z m 19.32169,0 v 4.11967 h 5.33294 v -4.11967 z m 7.99978,0 v 4.11967 h 5.33368 v -4.11967 z m 19.32169,0 v 4.11967 h 5.33368 v -4.11967 z m 8.00052,0 v 4.11967 h 5.33294 v -4.11967 z m 20.65511,0 v 1.85308 h -1.33342 v 2.26659 h 5.33368 v -2.26659 h 2.6661 v 2.26659 h 5.33368 v -2.26659 h -1.33342 v -1.85308 z"
         transform="matrix(0.70107448,0,0,0.70107448,-147.28816,-195.92869)" />
      <path
         id="path104"
         style="font-size:16px;letter-spacing:11.3219px;white-space:pre;shape-inside:url(#rect1);fill:#7d2af6;fill-opacity:1"
         d="m 219.91771,445.12501 v 0.81377 h 5.33368 v -0.81377 z m 8.00052,0 v 0.81377 h 5.33294 v -0.81377 z m 19.32169,0 v 0.81377 h 5.33294 v -0.81377 z m 7.99978,0 v 0.81377 h 5.33368 v -0.81377 z m 19.32243,0 v 0.81377 h 5.33294 v -0.81377 z m 27.32147,0 v 0.81377 h 5.33368 v -0.81377 z m 7.99978,0 v 0.81377 h 5.33368 v -0.81377 z m 38.64412,0 v 0.81377 h 5.33294 v -0.81377 z m 27.32221,0 v 0.81377 h 5.33294 v -0.81377 z m 19.32169,0 v 0.81377 h 5.33294 v -0.81377 z m 7.99978,0 v 0.81377 h 5.33368 v -0.81377 z m 19.32169,0 v 0.81377 h 5.33368 v -0.81377 z m 8.00052,0 v 0.81377 h 5.33294 v -0.81377 z m 19.32169,0 v 0.81377 h 5.33368 v -0.81377 z m 7.99978,0 v 0.81377 h 5.33368 v -0.81377 z"
         transform="matrix(0.70107448,0,0,0.70107448,-147.28816,-195.92869)" />
      <path
         id="path105"
         style="font-size:16px;letter-spacing:11.3219px;white-space:pre;shape-inside:url(#rect1);fill:#7d2af6;fill-opacity:1"
         d="m 219.91771,451.46852 v 1.09608 h 5.33368 v -1.09608 z m 8.00052,0 v 1.09608 h 5.33294 v -1.09608 z m 19.32169,0 v 1.09608 h 5.33294 v -1.09608 z m 7.99978,0 v 1.09608 h 5.33368 v -1.09608 z m 19.32243,0 v 1.09608 h 13.33272 v -0.69583 h -7.99978 v -0.40025 z m 27.32147,0 v 1.09608 h 5.33368 v -1.09608 z m 7.99978,0 v 1.09608 h 5.33368 v -1.09608 z m 38.64412,0 v 1.09608 h 13.33346 v -0.69583 h -8.00052 v -0.40025 z m 27.32221,0 v 1.09608 h 5.33294 v -1.09608 z m 19.32169,0 v 1.09608 h 5.33294 v -1.09608 z m 7.99978,0 v 1.09608 h 5.33368 v -1.09608 z m 19.32169,0 v 1.09608 h 13.33346 v -1.09608 h -5.33294 v 0.40025 h -2.66684 v -0.40025 z m 27.32221,0 v 1.09608 h 5.33368 v -1.09608 z m 7.99978,0 v 1.09608 h 5.33368 v -1.09608 z"
         transform="matrix(0.70107448,0,0,0.70107448,-147.28816,-195.92869)" />
      <path
         id="path106"
         style="font-size:16px;letter-spacing:11.3219px;white-space:pre;shape-inside:url(#rect1);fill:#7d2af6;fill-opacity:1"
         d="m 219.91771,452.5646 v 1.97027 h 5.33368 v -1.97027 z m 8.00052,0 v 1.97027 h 5.33294 v -1.97027 z m 19.32169,0 v 1.97027 h 5.33294 v -1.97027 z m 7.99978,0 v 1.97027 h 5.33368 v -1.97027 z m 19.32243,0 v 0.63685 h 1.33268 v 1.33342 h 12.00004 v -1.97027 z m 27.32147,0 v 1.97027 h 5.33368 v -1.97027 z m 7.99978,0 v 1.97027 h 5.33368 v -1.97027 z m 38.64412,0 v 1.97027 h 13.33346 v -1.97027 z m 27.32221,0 v 1.97027 h 5.33294 v -1.97027 z m 19.32169,0 v 1.97027 h 5.33294 v -1.97027 z m 7.99978,0 v 1.97027 h 5.33368 v -1.97027 z m 19.32169,0 v 0.63685 h 1.33342 v 1.33342 h 10.66662 v -1.33342 h 1.33342 v -0.63685 z m 27.32221,0 v 1.97027 h 5.33368 v -1.97027 z m 7.99978,0 v 1.97027 h 5.33368 v -1.97027 z"
         transform="matrix(0.70107448,0,0,0.70107448,-147.28816,-195.92869)" />
      <path
         id="path107"
         style="font-size:16px;letter-spacing:11.3219px;white-space:pre;shape-inside:url(#rect1);fill:#7d2af6;fill-opacity:1"
         d="m 219.91771,443.96039 v 1.16462 h 5.33368 v -1.16462 z m 8.00052,0 v 1.16462 h 5.33294 v -1.16462 z m 19.32169,0 v 1.16462 h 5.33294 v -1.16462 z m 7.99978,0 v 1.16462 h 5.33368 v -1.16462 z m 19.32243,0 v 1.16462 h 5.33294 v -1.16462 z m 27.32147,0 v 1.16462 h 5.33368 v -1.16462 z m 7.99978,0 v 1.16462 h 5.33368 v -1.16462 z m 38.64412,0 v 1.16462 h 5.33294 v -1.16462 z m 27.32221,0 v 1.16462 h 5.33294 v -1.16462 z m 19.32169,0 v 1.16462 h 5.33294 v -1.16462 z m 7.99978,0 v 1.16462 h 5.33368 v -1.16462 z m 19.32169,0 v 1.16462 h 5.33368 v -1.16462 z m 8.00052,0 v 1.16462 h 5.33294 v -1.16462 z m 19.32169,0 v 1.16462 h 5.33368 v -1.16462 z m 7.99978,0 v 1.16462 h 5.33368 v -1.16462 z"
         transform="matrix(0.70107448,0,0,0.70107448,-147.28816,-195.92869)" />
      <path
         id="path108"
         style="font-size:16px;letter-spacing:11.3219px;white-space:pre;shape-inside:url(#rect1);fill:#7d2af6;fill-opacity:1"
         d="m 221.25113,441.20215 v 1.33268 h -1.33342 v 1.42556 h 5.33368 v -0.0921 h 2.66684 v 0.0921 h 5.33294 v -1.42556 h -1.33342 v -1.33268 z m 25.98879,0 v 2.75824 h 5.33294 v -0.0921 h 2.66684 v 0.0921 h 5.33368 v -1.42556 h -1.33342 v -1.33268 z m 28.65489,0 v 1.33268 h -1.33268 v 1.42556 h 5.33294 v -0.0921 h 7.99978 v -2.6661 z m 25.98879,0 v 2.75824 h 5.33368 v -2.75824 z m 7.99978,0 v 2.75824 h 5.33368 v -2.75824 z m 38.64412,0 v 2.75824 h 5.33294 v -2.75824 z m 27.32221,0 v 2.75824 h 5.33294 v -2.75824 z m 19.32169,0 v 2.75824 h 5.33294 v -0.0921 h 2.66684 v 0.0921 h 5.33368 v -1.42556 h -1.33342 v -1.33268 z m 27.32147,0 v 2.75824 h 5.33368 v -2.75824 z m 8.00052,0 v 2.75824 h 5.33294 v -2.75824 z m 19.32169,0 v 2.75824 h 5.33368 v -2.75824 z m 7.99978,0 v 2.75824 h 5.33368 v -2.75824 z"
         transform="matrix(0.70107448,0,0,0.70107448,-147.28816,-195.92869)" />
      <path
         id="path109"
         style="font-size:16px;letter-spacing:11.3219px;white-space:pre;shape-inside:url(#rect1);fill:#7d2af6;fill-opacity:1;stroke-width:0.701074"
         d="m 7.4197008,116.70761 v 0.98856 h 9.3477482 v -0.98856 h -3.738788 v 0.41806 h -1.869653 v -0.41806 z m 19.1549042,0 v 0.98856 h 8.412922 v -0.5705 h 0.934827 v -0.41806 h -3.739307 v 0.41806 h -1.869654 v -0.41806 z m 19.154904,0 v 0.98856 h 3.738788 v -0.98856 z m 19.154386,0 v 0.98856 h 9.347748 v -0.98856 h -3.739307 v 0.41806 h -1.869135 v -0.41806 z m 32.700847,0 v 0.98856 h 3.738788 v -0.98856 z m 19.154908,0 v 0.98856 h 3.73878 v -0.98856 z m 13.54594,0 v 0.98856 h 3.73879 v -0.98856 z m 5.60844,0 v 0.98856 h 3.73931 v -0.98856 z m 13.54595,0 v 0.98856 h 3.7393 v -0.98856 z m 5.60896,0 v 0.98856 h 3.73878 v -0.98856 z m 13.54594,0 v 0.41806 h 0.93483 v 0.5705 h 7.47809 v -0.5705 h 0.93483 v -0.41806 h -3.73931 v 0.41806 h -1.86913 v -0.41806 z" />
      <path
         id="path110"
         style="font-size:16px;letter-spacing:11.3219px;white-space:pre;shape-inside:url(#rect1);fill:#7d2af6;fill-opacity:1;stroke-width:0.701074"
         d="m 6.3613675,117.69617 v 2.8882 h 3.7393065 v -1.58905 h 1.869654 v 1.58905 h 3.738788 v -2.8882 z m 19.1549045,0 v 2.8882 h 3.738788 v -1.58905 h 1.869653 v 1.58905 h 3.739307 v -1.58905 h -0.934827 v -1.29915 z m 19.154904,0 v 2.8882 h 3.738788 v -2.8882 z m 19.154385,0 v 2.8882 h 3.739307 v -1.58905 h 1.869135 v 1.58905 h 3.739307 v -2.8882 z m 32.700848,0 v 2.8882 h 3.738791 v -2.8882 z m 19.154901,0 v 2.8882 h 3.73879 v -2.8882 z m 13.54595,0 v 2.8882 h 3.73879 v -2.8882 z m 5.60844,0 v 2.8882 h 3.73931 v -2.8882 z m 13.54594,0 v 2.8882 h 3.73931 v -2.8882 z m 5.60896,0 v 2.8882 h 3.73879 v -2.8882 z m 14.48077,0 v 1.29915 h -0.93482 v 1.58905 h 3.7393 v -1.58905 h 1.86914 v 1.58905 h 3.73931 v -1.58905 h -0.93483 v -1.29915 z" />
      <path
         id="path111"
         style="font-size:16px;letter-spacing:11.3219px;white-space:pre;shape-inside:url(#rect1);fill:#7d2af6;fill-opacity:1"
         d="m 219.91771,445.12501 v 0.81377 h 5.33368 v -0.81377 z m 8.00052,0 v 0.81377 h 5.33294 v -0.81377 z m 19.32169,0 v 0.81377 h 5.33294 v -0.81377 z m 7.99978,0 v 0.81377 h 5.33368 v -0.81377 z m 19.32243,0 v 0.81377 h 5.33294 v -0.81377 z m 27.32147,0 v 0.81377 h 5.33368 v -0.81377 z m 7.99978,0 v 0.81377 h 5.33368 v -0.81377 z m 38.64412,0 v 0.81377 h 5.33294 v -0.81377 z m 27.32221,0 v 0.81377 h 5.33294 v -0.81377 z m 19.32169,0 v 0.81377 h 5.33294 v -0.81377 z m 7.99978,0 v 0.81377 h 5.33368 v -0.81377 z m 19.32169,0 v 0.81377 h 5.33368 v -0.81377 z m 8.00052,0 v 0.81377 h 5.33294 v -0.81377 z m 19.32169,0 v 0.81377 h 5.33368 v -0.81377 z m 7.99978,0 v 0.81377 h 5.33368 v -0.81377 z"
         transform="matrix(0.70107448,0,0,0.70107448,-147.28816,-195.92869)" />
      <path
         id="path112"
         style="font-size:16px;letter-spacing:11.3219px;white-space:pre;shape-inside:url(#rect1);fill:#7d2af6;fill-opacity:1;stroke-width:0.701074"
         d="m 7.4197008,120.58437 v 0.76843 h 3.7393072 v -0.76843 z m 5.6089602,0 v 0.76843 h 3.738788 v -0.76843 z m 13.545944,0 v 0.76843 h 3.738788 v -0.76843 z m 5.608442,0 v 0.76843 h 3.739307 v -0.76843 z m 13.546462,0 v 0.76843 h 9.34723 v -0.48783 h -5.608442 v -0.2806 z m 19.154386,0 v 0.76843 h 3.739306 v -0.76843 z m 5.608441,0 v 0.76843 h 3.739307 v -0.76843 z m 27.092406,0 v 0.76843 h 9.347748 v -0.48783 h -5.60896 v -0.2806 z m 19.154908,0 v 0.76843 h 3.73878 v -0.76843 z m 13.54594,0 v 0.76843 h 3.73879 v -0.76843 z m 5.60844,0 v 0.76843 h 3.73931 v -0.76843 z m 13.54595,0 v 0.76843 h 9.34774 v -0.76843 h -3.73878 v 0.2806 h -1.86966 v -0.2806 z m 19.1549,0 v 0.76843 h 3.73931 v -0.76843 z m 5.60844,0 v 0.76843 h 3.73931 v -0.76843 z" />
      <path
         id="path113"
         style="font-size:16px;letter-spacing:11.3219px;white-space:pre;shape-inside:url(#rect1);fill:#7d2af6;fill-opacity:1;stroke-width:0.701074"
         d="m 5.8322008,121.3528 v 1.38131 h 3.7393065 v -1.38131 z m 5.6089602,0 v 1.38131 h 3.738788 v -1.38131 z m 13.545944,0 v 1.38131 h 3.738788 v -1.38131 z m 5.608441,0 v 1.38131 h 3.739307 v -1.38131 z m 13.546463,0 v 0.44648 h 0.934308 v 0.93483 h 8.412922 v -1.38131 z m 19.154385,0 v 1.38131 h 3.739307 v -1.38131 z m 5.608442,0 v 1.38131 h 3.739307 v -1.38131 z m 27.092406,0 v 1.38131 h 9.347748 v -1.38131 z m 19.154898,0 v 1.38131 h 3.73879 v -1.38131 z m 13.54595,0 v 1.38131 h 3.73879 v -1.38131 z m 5.60844,0 v 1.38131 h 3.73931 v -1.38131 z m 13.54594,0 v 0.44648 h 0.93483 v 0.93483 h 7.47809 v -0.93483 h 0.93483 v -0.44648 z m 19.15491,0 v 1.38131 h 3.7393 v -1.38131 z m 5.60844,0 v 1.38131 h 3.73931 v -1.38131 z" />
      <path
         id="path114"
         style="font-size:16px;letter-spacing:11.3219px;white-space:pre;shape-inside:url(#rect1);fill:#7d2af6;fill-opacity:1;stroke-width:0.701074"
         d="m 6.3613675,115.32061 v 0.81648 h 3.7393065 v -0.81648 z m 5.6089605,0 v 0.81648 h 3.738788 v -0.81648 z m 13.545944,0 v 0.81648 h 3.738788 v -0.81648 z m 5.608441,0 v 0.81648 h 3.739307 v -0.81648 z m 13.546463,0 v 0.81648 h 3.738788 v -0.81648 z m 19.154385,0 v 0.81648 h 3.739307 v -0.81648 z m 5.608442,0 v 0.81648 h 3.739307 v -0.81648 z m 27.092406,0 v 0.81648 h 3.738791 v -0.81648 z m 19.154901,0 v 0.81648 h 3.73879 v -0.81648 z m 13.54595,0 v 0.81648 h 3.73879 v -0.81648 z m 5.60844,0 v 0.81648 h 3.73931 v -0.81648 z m 13.54594,0 v 0.81648 h 3.73931 v -0.81648 z m 5.60896,0 v 0.81648 h 3.73879 v -0.81648 z m 13.54595,0 v 0.81648 h 3.7393 v -0.81648 z m 5.60844,0 v 0.81648 h 3.73931 v -0.81648 z" />
      <path
         id="path115"
         style="font-size:16px;letter-spacing:11.3219px;white-space:pre;shape-inside:url(#rect1);fill:#7d2af6;fill-opacity:1;stroke-width:0.701074"
         d="m 8.3545276,113.38688 v 0.93431 H 7.4197008 v 0.99942 h 3.7393072 v -0.0646 h 1.869653 v 0.0646 h 3.738788 v -0.99942 h -0.934826 v -0.93431 z m 18.2200774,0 v 1.93373 h 3.738788 v -0.0646 h 1.869654 v 0.0646 h 3.739307 v -0.99942 h -0.934827 v -0.93431 z m 20.089212,0 v 0.93431 h -0.934308 v 0.99942 h 3.738788 v -0.0646 h 5.608442 v -1.86913 z m 18.220078,0 v 1.93373 h 3.739306 v -1.93373 z m 5.608441,0 v 1.93373 h 3.739307 v -1.93373 z m 27.092406,0 v 1.93373 h 3.738788 v -1.93373 z m 19.154908,0 v 1.93373 h 3.73878 v -1.93373 z m 13.54594,0 v 1.93373 h 3.73879 v -0.0646 h 1.86965 v 0.0646 h 3.73931 v -0.99942 h -0.93483 v -0.93431 z m 19.15439,0 v 1.93373 h 3.7393 v -1.93373 z m 5.60896,0 v 1.93373 h 3.73878 v -1.93373 z m 13.54594,0 v 1.93373 h 3.73931 v -1.93373 z m 5.60844,0 v 1.93373 h 3.73931 v -1.93373 z" />
    </g>
    <path
       id="text1"
       style="font-size:16px;letter-spacing:11.3219px;white-space:pre;shape-inside:url(#rect1);fill:#00ffff;stroke-width:1.95876"
       d="m 11.931484,33.776999 v 2.76199 h 26.11712 v -2.76199 h -10.44598 v 1.16803 h -5.22371 v -1.16803 z m 53.517798,0 v 2.76199 h 23.505264 v -1.59396 h 2.611858 v -1.16803 H 81.118975 v 1.16803 h -5.223713 v -1.16803 z m 53.517798,0 v 2.76199 h 10.44599 v -2.76199 z m 53.51636,0 v 2.76199 h 26.11712 v -2.76199 h -10.44743 v 1.16803 h -5.22226 v -1.16803 z m 91.36446,0 v 2.76199 h 10.44598 v -2.76199 z m 53.51781,0 v 2.76199 h 10.44597 v -2.76199 z m 37.84666,0 v 2.76199 h 10.44597 v -2.76199 z m 15.66969,0 v 2.76199 h 10.44742 v -2.76199 z m 37.84666,0 v 2.76199 h 10.44742 v -2.76199 z m 15.67114,0 v 2.76199 h 10.44597 v -2.76199 z m 37.84666,0 v 1.16803 h 2.61186 v 1.59396 h 20.89341 v -1.59396 h 2.61185 v -1.16803 h -10.44743 v 1.16803 h -5.22226 v -1.16803 z" />
    <path
       id="path88"
       style="font-size:16px;letter-spacing:11.3219px;white-space:pre;shape-inside:url(#rect1);fill:#00ffff;stroke-width:1.95876"
       d="m 11.931484,36.538989 v 8.06947 h 10.44743 v -4.43972 h 5.22371 v 4.43972 h 10.44598 v -8.06947 z m 53.517798,0 v 8.06947 h 10.44598 v -4.43972 h 5.223713 v 4.43972 h 10.447429 v -4.43972 h -2.611858 v -3.62975 z m 53.517798,0 v 8.06947 h 10.44599 v -8.06947 z m 53.51636,0 v 8.06947 h 10.44743 v -4.43972 h 5.22226 v 4.43972 h 10.44743 v -8.06947 z m 91.36446,0 v 8.06947 h 10.44598 v -8.06947 z m 53.51781,0 v 8.06947 h 10.44597 v -8.06947 z m 37.84666,0 v 8.06947 h 10.44597 v -8.06947 z m 15.66969,0 v 8.06947 h 10.44742 v -8.06947 z m 37.84666,0 v 8.06947 h 10.44742 v -8.06947 z m 15.67114,0 v 8.06947 h 10.44597 v -8.06947 z m 40.45852,0 v 3.62975 h -2.61186 v 4.43972 h 10.44743 v -4.43972 h 5.22226 v 4.43972 h 10.44743 v -4.43972 h -2.61185 v -3.62975 z" />
    <path
       id="path78"
       style="font-size:16px;letter-spacing:11.3219px;white-space:pre;shape-inside:url(#rect1);fill:#00ffff;stroke-width:1.95876"
       d="m 11.931484,32.183009 v 1.59399 h 10.44743 v -1.59399 z m 15.67114,0 v 1.59399 h 10.44598 v -1.59399 z m 37.846658,0 v 1.59399 h 10.44598 v -1.59399 z m 15.669693,0 v 1.59399 h 10.447429 v -1.59399 z m 37.848105,0 v 1.59399 h 10.44599 v -1.59399 z m 53.51636,0 v 1.59399 h 10.44743 v -1.59399 z m 15.66969,0 v 1.59399 h 10.44743 v -1.59399 z m 75.69477,0 v 1.59399 h 10.44598 v -1.59399 z m 53.51781,0 v 1.59399 h 10.44597 v -1.59399 z m 37.84666,0 v 1.59399 h 10.44597 v -1.59399 z m 15.66969,0 v 1.59399 h 10.44742 v -1.59399 z m 37.84666,0 v 1.59399 h 10.44742 v -1.59399 z m 15.67114,0 v 1.59399 h 10.44597 v -1.59399 z m 37.84666,0 v 1.59399 h 10.44743 v -1.59399 z m 15.66969,0 v 1.59399 h 10.44743 v -1.59399 z" />
    <path
       id="path62"
       style="font-size:16px;letter-spacing:11.3219px;white-space:pre;shape-inside:url(#rect1);fill:#00ffff;stroke-width:1.95876"
       d="m 11.931484,44.608459 v 2.14697 h 10.44743 v -2.14697 z m 15.67114,0 v 2.14697 h 10.44598 v -2.14697 z m 37.846658,0 v 2.14697 h 10.44598 v -2.14697 z m 15.669693,0 v 2.14697 h 10.447429 v -2.14697 z m 37.848105,0 v 2.14697 h 26.11568 v -1.36298 h -15.66969 v -0.78399 z m 53.51636,0 v 2.14697 h 10.44743 v -2.14697 z m 15.66969,0 v 2.14697 h 10.44743 v -2.14697 z m 75.69477,0 v 2.14697 h 26.11713 v -1.36298 h -15.67115 v -0.78399 z m 53.51781,0 v 2.14697 h 10.44597 v -2.14697 z m 37.84666,0 v 2.14697 h 10.44597 v -2.14697 z m 15.66969,0 v 2.14697 h 10.44742 v -2.14697 z m 37.84666,0 v 2.14697 h 26.11711 v -2.14697 h -10.44597 v 0.78399 h -5.22372 v -0.78399 z m 53.5178,0 v 2.14697 h 10.44743 v -2.14697 z m 15.66969,0 v 2.14697 h 10.44743 v -2.14697 z" />
    <path
       id="path61"
       style="font-size:16px;letter-spacing:11.3219px;white-space:pre;shape-inside:url(#rect1);fill:#00ffff;stroke-width:1.95876"
       d="m 11.931484,46.755429 v 3.85928 h 10.44743 v -3.85928 z m 15.67114,0 v 3.85928 h 10.44598 v -3.85928 z m 37.846658,0 v 3.85928 h 10.44598 v -3.85928 z m 15.669693,0 v 3.85928 h 10.447429 v -3.85928 z m 37.848105,0 v 1.24743 h 2.61041 v 2.61185 h 23.50527 v -3.85928 z m 53.51636,0 v 3.85928 h 10.44743 v -3.85928 z m 15.66969,0 v 3.85928 h 10.44743 v -3.85928 z m 75.69477,0 v 3.85928 h 26.11713 v -3.85928 z m 53.51781,0 v 3.85928 h 10.44597 v -3.85928 z m 37.84666,0 v 3.85928 h 10.44597 v -3.85928 z m 15.66969,0 v 3.85928 h 10.44742 v -3.85928 z m 37.84666,0 v 1.24743 h 2.61186 v 2.61185 h 20.89341 v -2.61185 h 2.61184 v -1.24743 z m 53.5178,0 v 3.85928 h 10.44743 v -3.85928 z m 15.66969,0 v 3.85928 h 10.44743 v -3.85928 z" />
    <path
       id="path31"
       style="font-size:16px;letter-spacing:11.3219px;white-space:pre;shape-inside:url(#rect1);fill:#00ffff;stroke-width:1.95876"
       d="m 11.931484,29.901789 v 2.28122 h 10.44743 v -2.28122 z m 15.67114,0 v 2.28122 h 10.44598 v -2.28122 z m 37.846658,0 v 2.28122 h 10.44598 v -2.28122 z m 15.669693,0 v 2.28122 h 10.447429 v -2.28122 z m 37.848105,0 v 2.28122 h 10.44599 v -2.28122 z m 53.51636,0 v 2.28122 h 10.44743 v -2.28122 z m 15.66969,0 v 2.28122 h 10.44743 v -2.28122 z m 75.69477,0 v 2.28122 h 10.44598 v -2.28122 z m 53.51781,0 v 2.28122 h 10.44597 v -2.28122 z m 37.84666,0 v 2.28122 h 10.44597 v -2.28122 z m 15.66969,0 v 2.28122 h 10.44742 v -2.28122 z m 37.84666,0 v 2.28122 h 10.44742 v -2.28122 z m 15.67114,0 v 2.28122 h 10.44597 v -2.28122 z m 37.84666,0 v 2.28122 h 10.44743 v -2.28122 z m 15.66969,0 v 2.28122 h 10.44743 v -2.28122 z" />
    <path
       id="path30"
       style="font-size:16px;letter-spacing:11.3219px;white-space:pre;shape-inside:url(#rect1);fill:#00ffff;stroke-width:1.95876"
       d="m 14.543334,24.499049 v 2.61041 h -2.61185 v 2.79233 h 10.44743 v -0.18048 h 5.22371 v 0.18048 h 10.44598 v -2.79233 h -2.61186 v -2.61041 z m 50.905948,0 v 5.40274 h 10.44598 v -0.18048 h 5.223713 v 0.18048 h 10.447429 v -2.79233 h -2.611858 v -2.61041 z m 56.128208,0 v 2.61041 h -2.61041 v 2.79233 h 10.44599 v -0.18048 h 15.66969 v -5.22226 z m 50.90595,0 v 5.40274 h 10.44743 v -5.40274 z m 15.66969,0 v 5.40274 h 10.44743 v -5.40274 z m 75.69477,0 v 5.40274 h 10.44598 v -5.40274 z m 53.51781,0 v 5.40274 h 10.44597 v -5.40274 z m 37.84666,0 v 5.40274 h 10.44597 v -0.18048 h 5.22372 v 0.18048 h 10.44742 v -2.79233 h -2.61184 v -2.61041 z m 53.51635,0 v 5.40274 h 10.44742 v -5.40274 z m 15.67114,0 v 5.40274 h 10.44597 v -5.40274 z m 37.84666,0 v 5.40274 h 10.44743 v -5.40274 z m 15.66969,0 v 5.40274 h 10.44743 v -5.40274 z" />
    <path
       id="path95"
       style="font-size:16px;letter-spacing:11.3219px;white-space:pre;shape-inside:url(#rect1);fill:#00ffff;stroke-width:1.95876"
       d="m 13.409944,33.776999 v 2.76198 h 26.11712 v -2.76198 h -10.44598 v 1.16803 h -5.22371 v -1.16803 z m 53.517803,0 v 2.76198 h 23.505264 v -1.59395 h 2.611858 v -1.16803 H 82.59744 v 1.16803 h -5.223715 v -1.16803 z m 53.517803,0 v 2.76198 h 10.44598 v -2.76198 z m 53.51635,0 v 2.76198 h 26.11712 v -2.76198 H 189.6316 v 1.16803 h -5.22227 v -1.16803 z m 91.36447,0 v 2.76198 h 10.44597 v -2.76198 z m 53.51782,0 v 2.76198 h 10.44594 v -2.76198 z m 37.84664,0 v 2.76198 h 10.44598 v -2.76198 z m 15.66969,0 v 2.76198 h 10.44744 v -2.76198 z m 37.84667,0 v 2.76198 h 10.44741 v -2.76198 z m 15.67115,0 v 2.76198 h 10.44595 v -2.76198 z m 37.84664,0 v 1.16803 h 2.61187 v 1.59395 h 20.8934 v -1.59395 h 2.61186 v -1.16803 h -10.44744 v 1.16803 h -5.22224 v -1.16803 z" />
    <path
       id="path96"
       style="font-size:16px;letter-spacing:11.3219px;white-space:pre;shape-inside:url(#rect1);fill:#00ffff;stroke-width:1.95876"
       d="m 10.453014,36.538979 v 8.06948 h 10.44743 v -4.43972 h 5.22371 v 4.43972 h 10.44598 v -8.06948 z m 53.517806,0 v 8.06948 h 10.445978 v -4.43972 h 5.223712 v 4.43972 h 10.447429 v -4.43972 h -2.611858 v -3.62976 z m 53.5178,0 v 8.06948 h 10.44598 v -8.06948 z m 53.51635,0 v 8.06948 h 10.44743 v -4.43972 h 5.22227 v 4.43972 h 10.44743 v -8.06948 z m 91.36447,0 v 8.06948 h 10.44598 v -8.06948 z m 53.51779,0 v 8.06948 h 10.44598 v -8.06948 z m 37.84668,0 v 8.06948 h 10.44598 v -8.06948 z m 15.66969,0 v 8.06948 h 10.44744 v -8.06948 z m 37.84665,0 v 8.06948 h 10.44743 v -8.06948 z m 15.67114,0 v 8.06948 h 10.44598 v -8.06948 z m 40.45852,0 v 3.62976 h -2.61185 v 4.43972 h 10.44741 v -4.43972 h 5.22228 v 4.43972 h 10.44744 v -4.43972 h -2.61186 v -3.62976 z" />
    <path
       id="path97"
       style="font-size:16px;letter-spacing:11.3219px;white-space:pre;shape-inside:url(#rect1);fill:#00ffff;stroke-width:1.95876"
       d="m 11.931484,32.183009 v 1.59399 h 10.44743 v -1.59399 z m 15.67114,0 v 1.59399 h 10.44598 v -1.59399 z m 37.846658,0 v 1.59399 h 10.44598 v -1.59399 z m 15.669693,0 v 1.59399 h 10.447429 v -1.59399 z m 37.848105,0 v 1.59399 h 10.44599 v -1.59399 z m 53.51636,0 v 1.59399 h 10.44743 v -1.59399 z m 15.66969,0 v 1.59399 h 10.44743 v -1.59399 z m 75.69477,0 v 1.59399 h 10.44598 v -1.59399 z m 53.51781,0 v 1.59399 h 10.44597 v -1.59399 z m 37.84666,0 v 1.59399 h 10.44597 v -1.59399 z m 15.66969,0 v 1.59399 h 10.44742 v -1.59399 z m 37.84666,0 v 1.59399 h 10.44742 v -1.59399 z m 15.67114,0 v 1.59399 h 10.44597 v -1.59399 z m 37.84666,0 v 1.59399 h 10.44743 v -1.59399 z m 15.66969,0 v 1.59399 h 10.44743 v -1.59399 z" />
    <path
       id="path98"
       style="font-size:16px;letter-spacing:11.3219px;white-space:pre;shape-inside:url(#rect1);fill:#00ffff;stroke-width:1.95876"
       d="m 13.409944,44.608459 v 2.14695 h 10.44743 v -2.14695 z m 15.67114,0 v 2.14695 h 10.44598 v -2.14695 z m 37.846663,0 v 2.14695 h 10.445978 v -2.14695 z m 15.669693,0 v 2.14695 h 10.447429 v -2.14695 z m 37.84811,0 v 2.14695 h 26.11567 v -1.36297 h -15.66969 v -0.78398 z m 53.51635,0 v 2.14695 h 10.44743 v -2.14695 z m 15.6697,0 v 2.14695 h 10.44742 v -2.14695 z m 75.69477,0 v 2.14695 h 26.11712 v -1.36297 h -15.67115 v -0.78398 z m 53.51782,0 v 2.14695 h 10.44594 v -2.14695 z m 37.84664,0 v 2.14695 h 10.44598 v -2.14695 z m 15.66969,0 v 2.14695 h 10.44744 v -2.14695 z m 37.84667,0 v 2.14695 h 26.1171 v -2.14695 h -10.44595 v 0.78398 h -5.22374 v -0.78398 z m 53.51779,0 v 2.14695 h 10.44745 v -2.14695 z m 15.66969,0 v 2.14695 h 10.44744 v -2.14695 z" />
    <path
       id="path99"
       style="font-size:16px;letter-spacing:11.3219px;white-space:pre;shape-inside:url(#rect1);fill:#00ffff;stroke-width:1.95876"
       d="m 8.9745541,46.755409 v 3.85931 H 19.421984 v -3.85931 z m 15.6711399,0 v 3.85931 h 10.44598 v -3.85931 z m 37.846661,0 v 3.85931 h 10.445978 v -3.85931 z m 15.66969,0 v 3.85931 h 10.447429 v -3.85931 z m 37.848115,0 v 1.24745 h 2.6104 v 2.61186 h 23.50527 v -3.85931 z m 53.51635,0 v 3.85931 h 10.44743 v -3.85931 z m 15.66969,0 v 3.85931 h 10.44743 v -3.85931 z m 75.69478,0 v 3.85931 h 26.11711 v -3.85931 z m 53.51777,0 v 3.85931 h 10.44599 v -3.85931 z m 37.84669,0 v 3.85931 h 10.44598 v -3.85931 z m 15.66969,0 v 3.85931 h 10.44743 v -3.85931 z m 37.84664,0 v 1.24745 h 2.61186 v 2.61186 h 20.8934 v -2.61186 h 2.61187 v -1.24745 z m 53.51782,0 v 3.85931 H 469.737 v -3.85931 z m 15.66969,0 v 3.85931 h 10.44744 v -3.85931 z" />
    <path
       id="path100"
       style="font-size:16px;letter-spacing:11.3219px;white-space:pre;shape-inside:url(#rect1);fill:#00ffff;stroke-width:1.95876"
       d="m 10.453014,29.901789 v 2.2812 h 10.44743 v -2.2812 z m 15.67114,0 v 2.2812 h 10.44598 v -2.2812 z m 37.846666,0 v 2.2812 h 10.445978 v -2.2812 z m 15.66969,0 v 2.2812 h 10.447429 v -2.2812 z m 37.84811,0 v 2.2812 h 10.44598 v -2.2812 z m 53.51635,0 v 2.2812 h 10.44743 v -2.2812 z m 15.6697,0 v 2.2812 h 10.44743 v -2.2812 z m 75.69477,0 v 2.2812 h 10.44598 v -2.2812 z m 53.51779,0 v 2.2812 h 10.44598 v -2.2812 z m 37.84668,0 v 2.2812 h 10.44598 v -2.2812 z m 15.66969,0 v 2.2812 h 10.44744 v -2.2812 z m 37.84665,0 v 2.2812 h 10.44743 v -2.2812 z m 15.67114,0 v 2.2812 h 10.44598 v -2.2812 z m 37.84667,0 v 2.2812 h 10.44741 v -2.2812 z m 15.66969,0 v 2.2812 h 10.44744 v -2.2812 z" />
    <path
       id="path101"
       style="font-size:16px;letter-spacing:11.3219px;white-space:pre;shape-inside:url(#rect1);fill:#00ffff;stroke-width:1.95876"
       d="m 16.021804,24.499049 v 2.61042 h -2.61186 v 2.79232 h 10.44743 v -0.18048 h 5.22371 v 0.18048 h 10.44598 v -2.79232 h -2.61185 v -2.61042 z m 50.905943,0 v 5.40274 h 10.445978 v -0.18048 h 5.223715 v 0.18048 h 10.447429 v -2.79232 h -2.611858 v -2.61042 z m 56.128213,0 v 2.61042 h -2.61041 v 2.79232 h 10.44598 v -0.18048 h 15.66969 v -5.22226 z m 50.90594,0 v 5.40274 h 10.44743 v -5.40274 z m 15.6697,0 v 5.40274 h 10.44742 v -5.40274 z m 75.69477,0 v 5.40274 h 10.44597 v -5.40274 z m 53.51782,0 v 5.40274 h 10.44594 v -5.40274 z m 37.84664,0 v 5.40274 h 10.44598 v -0.18048 h 5.22371 v 0.18048 h 10.44744 v -2.79232 h -2.61188 v -2.61042 z m 53.51636,0 v 5.40274 h 10.44741 v -5.40274 z m 15.67115,0 v 5.40274 h 10.44595 v -5.40274 z m 37.84664,0 v 5.40274 h 10.44745 v -5.40274 z m 15.66969,0 v 5.40274 h 10.44744 v -5.40274 z" />
  </g>
</svg>
