<?xml version="1.0" encoding="UTF-8" standalone="no"?>
<!-- Created with Inkscape (http://www.inkscape.org/) -->

<svg
   width="749.65021mm"
   height="564.81726mm"
   viewBox="0 0 749.65021 564.81726"
   version="1.1"
   id="svg1"
   inkscape:version="1.3.2 (091e20ef0f, 2023-11-25, custom)"
   sodipodi:docname="tech circles.svg"
   xmlns:inkscape="http://www.inkscape.org/namespaces/inkscape"
   xmlns:sodipodi="http://sodipodi.sourceforge.net/DTD/sodipodi-0.dtd"
   xmlns="http://www.w3.org/2000/svg"
   xmlns:svg="http://www.w3.org/2000/svg">
  <sodipodi:namedview
     id="namedview1"
     pagecolor="#ffffff"
     bordercolor="#000000"
     borderopacity="0.25"
     inkscape:showpageshadow="2"
     inkscape:pageopacity="0.0"
     inkscape:pagecheckerboard="false"
     inkscape:deskcolor="#d1d1d1"
     inkscape:document-units="px"
     showborder="false"
     inkscape:zoom="0.5"
     inkscape:cx="781"
     inkscape:cy="1100"
     inkscape:window-width="1920"
     inkscape:window-height="1008"
     inkscape:window-x="0"
     inkscape:window-y="0"
     inkscape:window-maximized="1"
     inkscape:current-layer="layer1" />
  <defs
     id="defs1" />
  <g
     inkscape:label="Layer 1"
     inkscape:groupmode="layer"
     id="layer1"
     transform="translate(488.58615,262.73213)">
    <path
       style="color:#000000;opacity:0.80252101;fill:#ff00ff;-inkscape-stroke:none;fill-opacity:1"
       d="m -46.473299,48.750408 c -8.70158,19.53959 -25.21171,34.51231 -45.50586,41.26953 -20.294161,6.75723 -42.484021,4.66924 -61.162111,-5.7539 l -6.44727,11.55273 c 21.91666,12.230392 47.97614,14.680802 71.789071,6.751962 23.81292,-7.928852 43.20177,-25.511942 53.41211,-48.439462 z"
       id="circle1" />
    <path
       style="color:#000000;opacity:0.80252101;fill:#ff00ff;-inkscape-stroke:none;fill-opacity:1"
       d="m -17.115879,17.771898 c 0,46.87316 -32.8421,87.268822 -78.72851,96.835932 -45.886421,9.56712 -92.135771,-14.33889 -110.867191,-57.306642 l -7.27735,3.17188 c 20.21487,46.370592 70.24326,72.229082 119.763681,61.904302 49.52041,-10.32479 85.0468699,-54.020172 85.0468699,-104.605472 z"
       id="circle2" />
    <path
       style="color:#000000;opacity:0.80252101;fill:#009ec5;-inkscape-stroke:none;fill-opacity:1"
       d="m -25.412749,30.338298 c -4.86325,35.07014 -29.51072,64.17466 -63.30079,74.748052 -33.790061,10.57339 -70.630871,0.70872 -94.617181,-25.333982 l -3.89258,3.58593 c 25.36504,27.539642 64.35752,37.979982 100.089841,26.798832 35.73232,-11.181152 61.82011,-41.986302 66.96289,-79.072262 z"
       id="circle3" />
    <path
       style="color:#000000;opacity:0.80252101;fill:#ff5555;-inkscape-stroke:none;fill-opacity:1"
       d="m -198.99674,38.254318 -2.56836,0.63476 c 7.45644,30.20071 30.29366,54.23382 60.07422,63.222662 29.78056,8.98884 62.099251,1.60224 85.019531,-19.429692 l -1.78906,-1.94922 c -22.23483,20.402952 -53.576851,27.565732 -82.466801,18.84571 -28.88995,-8.72003 -51.03608,-32.02669 -58.26953,-61.32422 z"
       id="circle4" />
    <path
       style="color:#000000;opacity:0.80252101;fill:#009ec5;-inkscape-stroke:none;fill-opacity:1"
       d="m -197.1315,7.8695484 c -4.63684,37.9746296 17.7066,74.0889596 53.75781,86.8906296 36.05121,12.801672 76.168491,-1.13278 96.519531,-33.52735 l -1.12109,-0.70507 c -20.02545,31.87628 -59.480661,45.583182 -94.955081,32.98632 -35.47443,-12.59685 -57.45132,-48.1173 -52.88867,-85.4843696 z"
       id="circle5" />
    <path
       style="color:#000000;opacity:0.80252101;fill:#ff00ff;-inkscape-stroke:none;fill-opacity:1"
       d="m -185.59635,-13.206622 c 8.70158,-19.539581 25.21171,-34.512306 45.50586,-41.269529 20.29416,-6.757224 42.484021,-4.671185 61.162111,5.751953 l 6.44727,-11.550782 c -21.91665,-12.230387 -47.976141,-14.682753 -71.789071,-6.753906 -23.81292,7.928848 -43.20177,25.511936 -53.41211,48.439454 z"
       id="path15" />
    <path
       style="color:#000000;opacity:0.80252101;fill:#ff00ff;-inkscape-stroke:none;fill-opacity:1"
       d="m -214.95377,17.771898 c 0,-46.873163 32.8421,-87.268827 78.72852,-96.83594 45.886421,-9.567113 92.135761,14.336946 110.867181,57.30469 l 7.27539,-3.17188 c -20.21487,-46.370591 -70.2413,-72.22908 -119.761711,-61.904294 -49.52042,10.324785 -85.04688,54.022118 -85.04688,104.607424 z"
       id="path16" />
    <path
       style="color:#000000;opacity:0.80252101;fill:#009ec5;-inkscape-stroke:none;fill-opacity:1"
       d="m -206.65689,5.2054884 c 4.86324,-35.0701314 29.51071,-64.1746554 63.30078,-74.7480464 33.79006,-10.57339 70.630871,-0.710668 94.617181,25.332032 l 3.89063,-3.583985 c -25.36504,-27.539632 -64.357531,-37.979976 -100.089841,-26.798828 -35.73232,11.181148 -61.81816,41.984351 -66.96094,79.0703174 z"
       id="path17" />
    <path
       style="color:#000000;opacity:0.80252101;fill:#ff5555;-inkscape-stroke:none;fill-opacity:1"
       d="m -33.074859,-2.7105216 2.57031,-0.63477 c -7.45644,-30.2007054 -30.29366,-54.2338154 -60.07422,-63.2226564 -29.780561,-8.988841 -62.099251,-1.604189 -85.019531,19.427734 l 1.78906,1.949219 c 22.23483,-20.40295 53.57685,-27.563774 82.466801,-18.84375 28.88995,8.720024 51.03413,32.026685 58.26758,61.3242234 z"
       id="path18" />
    <path
       style="color:#000000;opacity:0.80252101;fill:#009ec5;-inkscape-stroke:none;fill-opacity:1"
       d="m -34.938149,27.674238 c 4.63684,-37.97462 -17.7066,-74.090908 -53.75781,-86.892577 -36.051201,-12.801668 -76.168491,1.134737 -96.519531,33.529297 l 1.1211,0.70313 c 20.02544,-31.876288 59.48065,-45.581236 94.955071,-32.98438 35.47443,12.596856 57.45133,48.1173004 52.88867,85.48437 z"
       id="path19" />
    <circle
       style="opacity:0.802521;fill:#ffffff;fill-opacity:1;stroke-width:0.52916665;stroke:#34c7ff;stroke-opacity:1;stroke-dasharray:none"
       id="circle19"
       cx="-116.03502"
       cy="17.771378"
       r="37.608444" />
    <path
       style="color:#000000;opacity:0.80252101;fill:#ff00ff;-inkscape-stroke:none;fill-opacity:1"
       d="m -106.83815,133.06477 0.0328,13.24078 c -35.93356,2.5798 -71.32559,-9.98045 -97.56905,-34.68213 -26.23364,-24.692432 -40.90516,-59.243291 -40.51452,-95.25255 l 12.22664,0.180812 c -0.34018,32.58107 12.93307,63.823902 36.67025,86.166548 23.85979,22.45804 56.05723,33.84592 88.73109,31.38191 l -0.53667,-0.46072 z m 0,0 -0.4987,0.038 c -32.39435,2.44295 -64.31388,-8.84737 -87.96959,-31.11332 -23.65572,-22.265969 -36.8531,-53.441983 -36.3736,-85.924825 l 0.006,-0.500028 -14.22782,-0.209593 -0.008,0.49923 c -0.53837,36.471481 14.2902,71.498013 40.85063,96.498026 26.56043,25.00004 62.42032,37.68212 98.79246,34.9392 l 0.4987,-0.038 z"
       id="path29" />
    <path
       style="color:#000000;opacity:0.80252101;fill:#ff5555;-inkscape-stroke:none;fill-opacity:1"
       d="m -45.315226,147.96248 2.930641,7.41516 C -107.3816,190.16648 -187.9376,174.73202 -235.44405,118.30578 -282.93713,61.89543 -284.43291,-20.08374 -239.11708,-78.199724 l 5.45737,4.285405 c -43.311,55.5631 -41.88324,133.823638 3.51966,187.751369 45.51164,54.05688 122.65097,68.76312 184.859016,35.24294 l -0.677345,-0.20298 z m 0,0 -0.440166,0.23718 c -61.796668,33.29852 -138.407198,18.69288 -183.617868,-35.00652 -45.21067,-53.699393 -46.54886,-131.677354 -3.20776,-186.896653 l 0.30863,-0.394821 -7.03136,-5.518344 -0.30784,0.392175 c -45.9218,58.507271 -44.50193,141.27734 3.40076,198.174193 47.90268,56.89687 129.21873,72.39918 194.695013,37.11794 l 0.440166,-0.23718 z"
       id="path30" />
    <path
       style="color:#000000;opacity:0.80252101;fill:#009ec5;-inkscape-stroke:none;fill-opacity:1"
       d="m -67.93596,145.51739 0.986782,5.26111 c -51.311952,18.93691 -108.968342,6.68278 -148.126032,-31.53869 -39.1362,-38.20052 -52.78876,-95.505557 -35.14297,-147.238445 l 4.0583,1.400738 c -17.10749,50.172423 -3.87271,105.714963 34.08235,142.762577 38.07497,37.16466 94.15977,49.03034 144.021787,30.46445 l -0.6443,-0.294 z m 0,0 -0.470074,0.17344 c -49.501686,18.43172 -105.173396,6.6565 -142.973256,-30.23961 -37.79985,-36.896127 -50.91979,-92.268111 -33.69115,-142.201296 l 0.16468,-0.472561 -5.94748,-2.053394 -0.16204,0.473354 c -18.01787,52.220572 -4.28958,110.16968 35.24183,148.755947 39.53142,38.58628 97.79454,50.90972 149.563835,31.63365 l 0.467454,-0.17418 z"
       id="path31" />
    <path
       style="color:#000000;opacity:0.80252101;fill:#00ff00;fill-opacity:1;stroke:none;stroke-width:1;-inkscape-stroke:none"
       d="m -204.19607,-79.504386 -1.83125,-2.019595 c -35.06238,31.777364 -50.76766,79.6963673 -41.31587,126.062719 9.45177,46.366357 42.66018,84.314132 87.36355,99.831292 l 0.89373,-2.57572 c -43.79776,-15.2028 -76.32572,-52.374 -85.58602,-97.801054 -9.2603,-45.4270455 6.12379,-92.364039 40.47586,-123.497642 z"
       id="path32" />
    <path
       style="color:#000000;opacity:0.80252101;fill:#009ec5;stroke:none;-inkscape-stroke:none;fill-opacity:1"
       d="m -160.05377,-94.804368 c -52.71681,20.612803 -84.07154,75.058903 -75.44346,131.000939 8.62808,55.942031 54.93031,98.409819 111.40798,102.181349 l 0.0881,-1.31875 c -55.86697,-3.73075 -101.65494,-45.727989 -110.18973,-101.065114 -8.53479,-55.33712 22.47193,-109.177104 74.61871,-129.567017 z"
       id="path33" />
    <path
       style="color:#000000;opacity:0.80252101;fill:#ff00ff;fill-opacity:1;stroke-width:1.00012497;stroke-dasharray:none"
       d="m -125.23005,-97.521476 -0.0355,-13.241584 c 35.933562,-2.57979 71.325596,9.98047 97.569041,34.68214 26.233656,24.692439 40.905183,59.243294 40.514534,95.252546 L 0.59137816,18.990817 C 0.93157813,-13.59025 -12.339957,-44.834008 -36.077155,-67.176657 -59.936943,-89.634705 -92.13347,-101.02086 -124.80732,-98.556841 l 0.53667,0.460715 z m 0,0 0.49869,-0.03798 c 32.394377,-2.442935 64.312961,8.845656 87.968663,31.111605 23.655715,22.265953 36.8513862,53.442892 36.37189195,85.925752 l -0.005676,0.50003 14.22781602,0.209593 0.0083,-0.49923 C 14.378038,-16.783178 -0.45053426,-51.80971 -27.010971,-76.809736 -53.571395,-101.80976 -89.431286,-114.49184 -125.80344,-111.74893 l -0.49869,0.038 z"
       id="path34" />
    <path
       style="color:#000000;opacity:0.80252101;fill:#ff5555;-inkscape-stroke:none;fill-opacity:1"
       d="m -186.75562,-112.41998 -2.93064,-7.41515 c 64.997,-34.78885 145.553012,-19.35438 193.0594595,37.07185 47.4930835,56.410347 48.9888575,138.389517 3.67304,196.5055 l -5.45645,-4.28369 C 44.900797,53.895422 43.472113,-24.366826 -1.9308067,-78.294559 -47.442442,-132.35143 -124.58177,-147.05767 -186.78981,-113.53749 l 0.67734,0.20298 z m 0,0 0.44016,-0.23718 c 61.79667,-33.29851 138.4072,-18.69288 183.6178706,35.006516 C 42.513079,-23.951249 43.852193,54.028444 0.51110061,109.24773 l -0.30863258,0.39482 7.03043657,5.51662 0.3078421,-0.39217 C 53.462543,56.259731 52.042677,-26.51033 4.1399823,-83.407196 -43.762697,-140.30405 -125.07875,-155.80637 -190.55503,-120.52513 l -0.44017,0.23718 z"
       id="path35" />
    <path
       style="color:#000000;opacity:0.80252101;fill:#009ec5;-inkscape-stroke:none;fill-opacity:1"
       d="m -164.13397,-109.97318 -0.98771,-5.26282 c 51.31195,-18.93689 108.969284,-6.68108 148.126962,31.540407 39.136207,38.200526 52.789563,95.50293 35.143765,147.235794 L 14.089031,62.140389 C 31.196526,11.967981 17.963485,-43.575485 -19.991602,-80.623109 -58.066577,-117.78778 -114.15218,-129.6508 -164.01418,-111.08491 l 0.6443,0.294 z m 0,0 0.47008,-0.17343 c 49.5017,-18.43173 105.174214,-6.65914 142.974049,30.236966 37.799848,36.896111 50.91807,92.269033 33.689441,142.202215 l -0.164694,0.472565 5.94921,2.052458 0.162035,-0.473347 C 36.964024,12.123673 23.234927,-45.822797 -16.296479,-84.409057 -55.827886,-122.99534 -114.09193,-135.3205 -165.86124,-116.04443 l -0.46743,0.17422 z"
       id="path36" />
    <path
       style="color:#000000;opacity:0.80252101;fill:#00ff00;fill-opacity:1;stroke:none;stroke-width:1;-inkscape-stroke:none"
       d="m -27.872051,115.04771 1.829479,2.02054 C 9.019807,85.290886 24.724124,37.37011 15.272354,-8.9962459 5.8205739,-55.362598 -27.387848,-93.310379 -72.091212,-108.82754 l -0.893718,2.57573 C -29.187182,-91.049005 3.3425523,-53.878765 12.60286,-8.4517161 21.863155,36.975329 6.4800188,83.914095 -27.872051,115.04771 Z"
       id="path37" />
    <path
       style="color:#000000;opacity:0.80252101;fill:#009ec5;stroke:none;-inkscape-stroke:none;fill-opacity:1"
       d="M -72.017078,130.34687 C -19.300267,109.73406 12.057109,55.288757 3.4290265,-0.65328414 -5.1990596,-56.595312 -51.503933,-99.063893 -107.9816,-102.83542 l -0.0872,1.32047 C -52.201819,-97.784208 -6.4147699,-55.788682 2.1200168,-0.4515656 10.654808,54.88556 -20.351908,108.72555 -72.498682,129.11546 Z"
       id="path38" />
  </g>
</svg>
