<?xml version="1.0" encoding="UTF-8" standalone="no"?>
<!-- Created with Inkscape (http://www.inkscape.org/) -->

<svg
   width="297mm"
   height="297mm"
   viewBox="0 0 297 297"
   version="1.1"
   id="svg1"
   sodipodi:docname="Xray_OS glitch text.svg"
   inkscape:version="1.3.2 (091e20ef0f, 2023-11-25, custom)"
   xmlns:inkscape="http://www.inkscape.org/namespaces/inkscape"
   xmlns:sodipodi="http://sodipodi.sourceforge.net/DTD/sodipodi-0.dtd"
   xmlns="http://www.w3.org/2000/svg"
   xmlns:svg="http://www.w3.org/2000/svg">
  <sodipodi:namedview
     id="namedview1"
     pagecolor="#ffffff"
     bordercolor="#000000"
     borderopacity="0.25"
     inkscape:showpageshadow="2"
     inkscape:pageopacity="0.0"
     inkscape:pagecheckerboard="0"
     inkscape:deskcolor="#d1d1d1"
     inkscape:document-units="px"
     showborder="false"
     inkscape:zoom="0.70710678"
     inkscape:cx="488.61079"
     inkscape:cy="421.43564"
     inkscape:window-width="1920"
     inkscape:window-height="1008"
     inkscape:window-x="0"
     inkscape:window-y="0"
     inkscape:window-maximized="1"
     inkscape:current-layer="layer1" />
  <defs
     id="defs1">
    <filter
       style="color-interpolation-filters:sRGB;"
       inkscape:label="Blur"
       id="filter569"
       x="-0.0089319761"
       y="-0.0032239286"
       width="1.017864"
       height="1.0064479">
      <feGaussianBlur
         stdDeviation="0.21 0.01"
         result="fbSourceGraphic"
         id="feGaussianBlur569" />
      <feColorMatrix
         result="fbSourceGraphicAlpha"
         in="fbSourceGraphic"
         values="0 0 0 -1 0 0 0 0 -1 0 0 0 0 -1 0 0 0 0 1 0"
         id="feColorMatrix584" />
      <feGaussianBlur
         id="feGaussianBlur585"
         stdDeviation="0.21 0.01"
         result="fbSourceGraphic"
         in="fbSourceGraphic" />
      <feColorMatrix
         result="fbSourceGraphicAlpha"
         in="fbSourceGraphic"
         values="0 0 0 -1 0 0 0 0 -1 0 0 0 0 -1 0 0 0 0 1 0"
         id="feColorMatrix648" />
      <feGaussianBlur
         id="feGaussianBlur648"
         stdDeviation="0.41 0.01"
         result="blur"
         in="fbSourceGraphic" />
    </filter>
    <filter
       style="color-interpolation-filters:sRGB;"
       inkscape:label="Blur"
       id="filter570"
       x="-0.0089319761"
       y="-0.0032239286"
       width="1.017864"
       height="1.0064479">
      <feGaussianBlur
         stdDeviation="0.21 0.01"
         result="fbSourceGraphic"
         id="feGaussianBlur570" />
      <feColorMatrix
         result="fbSourceGraphicAlpha"
         in="fbSourceGraphic"
         values="0 0 0 -1 0 0 0 0 -1 0 0 0 0 -1 0 0 0 0 1 0"
         id="feColorMatrix585" />
      <feGaussianBlur
         id="feGaussianBlur586"
         stdDeviation="0.21 0.01"
         result="fbSourceGraphic"
         in="fbSourceGraphic" />
      <feColorMatrix
         result="fbSourceGraphicAlpha"
         in="fbSourceGraphic"
         values="0 0 0 -1 0 0 0 0 -1 0 0 0 0 -1 0 0 0 0 1 0"
         id="feColorMatrix649" />
      <feGaussianBlur
         id="feGaussianBlur649"
         stdDeviation="0.41 0.01"
         result="blur"
         in="fbSourceGraphic" />
    </filter>
    <filter
       style="color-interpolation-filters:sRGB;"
       inkscape:label="Blur"
       id="filter571"
       x="-0.0089986999"
       y="-0.025878242"
       width="1.0179974"
       height="1.0517565">
      <feGaussianBlur
         stdDeviation="0.21 0.01"
         result="fbSourceGraphic"
         id="feGaussianBlur571" />
      <feColorMatrix
         result="fbSourceGraphicAlpha"
         in="fbSourceGraphic"
         values="0 0 0 -1 0 0 0 0 -1 0 0 0 0 -1 0 0 0 0 1 0"
         id="feColorMatrix586" />
      <feGaussianBlur
         id="feGaussianBlur587"
         stdDeviation="0.21 0.01"
         result="fbSourceGraphic"
         in="fbSourceGraphic" />
      <feColorMatrix
         result="fbSourceGraphicAlpha"
         in="fbSourceGraphic"
         values="0 0 0 -1 0 0 0 0 -1 0 0 0 0 -1 0 0 0 0 1 0"
         id="feColorMatrix650" />
      <feGaussianBlur
         id="feGaussianBlur650"
         stdDeviation="0.41 0.01"
         result="blur"
         in="fbSourceGraphic" />
    </filter>
    <filter
       style="color-interpolation-filters:sRGB;"
       inkscape:label="Blur"
       id="filter572"
       x="-0.0089986999"
       y="-0.017429151"
       width="1.0179974"
       height="1.0348583">
      <feGaussianBlur
         stdDeviation="0.21 0.01"
         result="fbSourceGraphic"
         id="feGaussianBlur572" />
      <feColorMatrix
         result="fbSourceGraphicAlpha"
         in="fbSourceGraphic"
         values="0 0 0 -1 0 0 0 0 -1 0 0 0 0 -1 0 0 0 0 1 0"
         id="feColorMatrix587" />
      <feGaussianBlur
         id="feGaussianBlur588"
         stdDeviation="0.21 0.01"
         result="fbSourceGraphic"
         in="fbSourceGraphic" />
      <feColorMatrix
         result="fbSourceGraphicAlpha"
         in="fbSourceGraphic"
         values="0 0 0 -1 0 0 0 0 -1 0 0 0 0 -1 0 0 0 0 1 0"
         id="feColorMatrix651" />
      <feGaussianBlur
         id="feGaussianBlur651"
         stdDeviation="0.41 0.01"
         result="blur"
         in="fbSourceGraphic" />
    </filter>
    <filter
       style="color-interpolation-filters:sRGB;"
       inkscape:label="Blur"
       id="filter573"
       x="-0.0094832125"
       y="-0.044627914"
       width="1.0189664"
       height="1.0892558">
      <feGaussianBlur
         stdDeviation="0.21 0.01"
         result="fbSourceGraphic"
         id="feGaussianBlur573" />
      <feColorMatrix
         result="fbSourceGraphicAlpha"
         in="fbSourceGraphic"
         values="0 0 0 -1 0 0 0 0 -1 0 0 0 0 -1 0 0 0 0 1 0"
         id="feColorMatrix588" />
      <feGaussianBlur
         id="feGaussianBlur589"
         stdDeviation="0.21 0.01"
         result="fbSourceGraphic"
         in="fbSourceGraphic" />
      <feColorMatrix
         result="fbSourceGraphicAlpha"
         in="fbSourceGraphic"
         values="0 0 0 -1 0 0 0 0 -1 0 0 0 0 -1 0 0 0 0 1 0"
         id="feColorMatrix652" />
      <feGaussianBlur
         id="feGaussianBlur652"
         stdDeviation="0.41 0.01"
         result="blur"
         in="fbSourceGraphic" />
    </filter>
    <filter
       style="color-interpolation-filters:sRGB;"
       inkscape:label="Blur"
       id="filter574"
       x="-0.0089987001"
       y="-0.011319242"
       width="1.0179974"
       height="1.0226385">
      <feGaussianBlur
         stdDeviation="0.21 0.01"
         result="fbSourceGraphic"
         id="feGaussianBlur574" />
      <feColorMatrix
         result="fbSourceGraphicAlpha"
         in="fbSourceGraphic"
         values="0 0 0 -1 0 0 0 0 -1 0 0 0 0 -1 0 0 0 0 1 0"
         id="feColorMatrix589" />
      <feGaussianBlur
         id="feGaussianBlur590"
         stdDeviation="0.21 0.01"
         result="fbSourceGraphic"
         in="fbSourceGraphic" />
      <feColorMatrix
         result="fbSourceGraphicAlpha"
         in="fbSourceGraphic"
         values="0 0 0 -1 0 0 0 0 -1 0 0 0 0 -1 0 0 0 0 1 0"
         id="feColorMatrix653" />
      <feGaussianBlur
         id="feGaussianBlur653"
         stdDeviation="0.41 0.01"
         result="blur"
         in="fbSourceGraphic" />
    </filter>
    <filter
       style="color-interpolation-filters:sRGB;"
       inkscape:label="Blur"
       id="filter575"
       x="-0.0089986999"
       y="-0.030982533"
       width="1.0179974"
       height="1.0619651">
      <feGaussianBlur
         stdDeviation="0.21 0.01"
         result="fbSourceGraphic"
         id="feGaussianBlur575" />
      <feColorMatrix
         result="fbSourceGraphicAlpha"
         in="fbSourceGraphic"
         values="0 0 0 -1 0 0 0 0 -1 0 0 0 0 -1 0 0 0 0 1 0"
         id="feColorMatrix590" />
      <feGaussianBlur
         id="feGaussianBlur591"
         stdDeviation="0.21 0.01"
         result="fbSourceGraphic"
         in="fbSourceGraphic" />
      <feColorMatrix
         result="fbSourceGraphicAlpha"
         in="fbSourceGraphic"
         values="0 0 0 -1 0 0 0 0 -1 0 0 0 0 -1 0 0 0 0 1 0"
         id="feColorMatrix654" />
      <feGaussianBlur
         id="feGaussianBlur654"
         stdDeviation="0.41 0.01"
         result="blur"
         in="fbSourceGraphic" />
    </filter>
    <filter
       style="color-interpolation-filters:sRGB;"
       inkscape:label="Blur"
       id="filter576"
       x="-0.0089986999"
       y="-0.04105137"
       width="1.0179974"
       height="1.0821027">
      <feGaussianBlur
         stdDeviation="0.21 0.01"
         result="fbSourceGraphic"
         id="feGaussianBlur576" />
      <feColorMatrix
         result="fbSourceGraphicAlpha"
         in="fbSourceGraphic"
         values="0 0 0 -1 0 0 0 0 -1 0 0 0 0 -1 0 0 0 0 1 0"
         id="feColorMatrix591" />
      <feGaussianBlur
         id="feGaussianBlur592"
         stdDeviation="0.21 0.01"
         result="fbSourceGraphic"
         in="fbSourceGraphic" />
      <feColorMatrix
         result="fbSourceGraphicAlpha"
         in="fbSourceGraphic"
         values="0 0 0 -1 0 0 0 0 -1 0 0 0 0 -1 0 0 0 0 1 0"
         id="feColorMatrix655" />
      <feGaussianBlur
         id="feGaussianBlur655"
         stdDeviation="0.41 0.01"
         result="blur"
         in="fbSourceGraphic" />
    </filter>
    <filter
       style="color-interpolation-filters:sRGB;"
       inkscape:label="Blur"
       id="filter577"
       x="-0.0089986998"
       y="-0.021379259"
       width="1.0179974"
       height="1.0427585">
      <feGaussianBlur
         stdDeviation="0.21 0.01"
         result="fbSourceGraphic"
         id="feGaussianBlur577" />
      <feColorMatrix
         result="fbSourceGraphicAlpha"
         in="fbSourceGraphic"
         values="0 0 0 -1 0 0 0 0 -1 0 0 0 0 -1 0 0 0 0 1 0"
         id="feColorMatrix592" />
      <feGaussianBlur
         id="feGaussianBlur593"
         stdDeviation="0.21 0.01"
         result="fbSourceGraphic"
         in="fbSourceGraphic" />
      <feColorMatrix
         result="fbSourceGraphicAlpha"
         in="fbSourceGraphic"
         values="0 0 0 -1 0 0 0 0 -1 0 0 0 0 -1 0 0 0 0 1 0"
         id="feColorMatrix656" />
      <feGaussianBlur
         id="feGaussianBlur656"
         stdDeviation="0.41 0.01"
         result="blur"
         in="fbSourceGraphic" />
    </filter>
    <filter
       style="color-interpolation-filters:sRGB;"
       inkscape:label="Blur"
       id="filter578"
       x="-0.0089986998"
       y="-0.025878242"
       width="1.0179974"
       height="1.0517565">
      <feGaussianBlur
         stdDeviation="0.21 0.01"
         result="fbSourceGraphic"
         id="feGaussianBlur578" />
      <feColorMatrix
         result="fbSourceGraphicAlpha"
         in="fbSourceGraphic"
         values="0 0 0 -1 0 0 0 0 -1 0 0 0 0 -1 0 0 0 0 1 0"
         id="feColorMatrix593" />
      <feGaussianBlur
         id="feGaussianBlur594"
         stdDeviation="0.21 0.01"
         result="fbSourceGraphic"
         in="fbSourceGraphic" />
      <feColorMatrix
         result="fbSourceGraphicAlpha"
         in="fbSourceGraphic"
         values="0 0 0 -1 0 0 0 0 -1 0 0 0 0 -1 0 0 0 0 1 0"
         id="feColorMatrix657" />
      <feGaussianBlur
         id="feGaussianBlur657"
         stdDeviation="0.41 0.01"
         result="blur"
         in="fbSourceGraphic" />
    </filter>
    <filter
       style="color-interpolation-filters:sRGB;"
       inkscape:label="Blur"
       id="filter579"
       x="-0.0089986998"
       y="-0.017429151"
       width="1.0179974"
       height="1.0348583">
      <feGaussianBlur
         stdDeviation="0.21 0.01"
         result="fbSourceGraphic"
         id="feGaussianBlur579" />
      <feColorMatrix
         result="fbSourceGraphicAlpha"
         in="fbSourceGraphic"
         values="0 0 0 -1 0 0 0 0 -1 0 0 0 0 -1 0 0 0 0 1 0"
         id="feColorMatrix594" />
      <feGaussianBlur
         id="feGaussianBlur595"
         stdDeviation="0.21 0.01"
         result="fbSourceGraphic"
         in="fbSourceGraphic" />
      <feColorMatrix
         result="fbSourceGraphicAlpha"
         in="fbSourceGraphic"
         values="0 0 0 -1 0 0 0 0 -1 0 0 0 0 -1 0 0 0 0 1 0"
         id="feColorMatrix658" />
      <feGaussianBlur
         id="feGaussianBlur658"
         stdDeviation="0.41 0.01"
         result="blur"
         in="fbSourceGraphic" />
    </filter>
    <filter
       style="color-interpolation-filters:sRGB;"
       inkscape:label="Blur"
       id="filter580"
       x="-0.0094832124"
       y="-0.044627914"
       width="1.0189664"
       height="1.0892558">
      <feGaussianBlur
         stdDeviation="0.21 0.01"
         result="fbSourceGraphic"
         id="feGaussianBlur580" />
      <feColorMatrix
         result="fbSourceGraphicAlpha"
         in="fbSourceGraphic"
         values="0 0 0 -1 0 0 0 0 -1 0 0 0 0 -1 0 0 0 0 1 0"
         id="feColorMatrix595" />
      <feGaussianBlur
         id="feGaussianBlur596"
         stdDeviation="0.21 0.01"
         result="fbSourceGraphic"
         in="fbSourceGraphic" />
      <feColorMatrix
         result="fbSourceGraphicAlpha"
         in="fbSourceGraphic"
         values="0 0 0 -1 0 0 0 0 -1 0 0 0 0 -1 0 0 0 0 1 0"
         id="feColorMatrix659" />
      <feGaussianBlur
         id="feGaussianBlur659"
         stdDeviation="0.41 0.01"
         result="blur"
         in="fbSourceGraphic" />
    </filter>
    <filter
       style="color-interpolation-filters:sRGB;"
       inkscape:label="Blur"
       id="filter581"
       x="-0.0089987"
       y="-0.011319242"
       width="1.0179974"
       height="1.0226385">
      <feGaussianBlur
         stdDeviation="0.21 0.01"
         result="fbSourceGraphic"
         id="feGaussianBlur581" />
      <feColorMatrix
         result="fbSourceGraphicAlpha"
         in="fbSourceGraphic"
         values="0 0 0 -1 0 0 0 0 -1 0 0 0 0 -1 0 0 0 0 1 0"
         id="feColorMatrix596" />
      <feGaussianBlur
         id="feGaussianBlur597"
         stdDeviation="0.21 0.01"
         result="fbSourceGraphic"
         in="fbSourceGraphic" />
      <feColorMatrix
         result="fbSourceGraphicAlpha"
         in="fbSourceGraphic"
         values="0 0 0 -1 0 0 0 0 -1 0 0 0 0 -1 0 0 0 0 1 0"
         id="feColorMatrix660" />
      <feGaussianBlur
         id="feGaussianBlur660"
         stdDeviation="0.41 0.01"
         result="blur"
         in="fbSourceGraphic" />
    </filter>
    <filter
       style="color-interpolation-filters:sRGB;"
       inkscape:label="Blur"
       id="filter582"
       x="-0.0089986998"
       y="-0.030982533"
       width="1.0179974"
       height="1.0619651">
      <feGaussianBlur
         stdDeviation="0.21 0.01"
         result="fbSourceGraphic"
         id="feGaussianBlur582" />
      <feColorMatrix
         result="fbSourceGraphicAlpha"
         in="fbSourceGraphic"
         values="0 0 0 -1 0 0 0 0 -1 0 0 0 0 -1 0 0 0 0 1 0"
         id="feColorMatrix597" />
      <feGaussianBlur
         id="feGaussianBlur598"
         stdDeviation="0.21 0.01"
         result="fbSourceGraphic"
         in="fbSourceGraphic" />
      <feColorMatrix
         result="fbSourceGraphicAlpha"
         in="fbSourceGraphic"
         values="0 0 0 -1 0 0 0 0 -1 0 0 0 0 -1 0 0 0 0 1 0"
         id="feColorMatrix661" />
      <feGaussianBlur
         id="feGaussianBlur661"
         stdDeviation="0.41 0.01"
         result="blur"
         in="fbSourceGraphic" />
    </filter>
    <filter
       style="color-interpolation-filters:sRGB;"
       inkscape:label="Blur"
       id="filter583"
       x="-0.0089986998"
       y="-0.04105137"
       width="1.0179974"
       height="1.0821027">
      <feGaussianBlur
         stdDeviation="0.21 0.01"
         result="fbSourceGraphic"
         id="feGaussianBlur583" />
      <feColorMatrix
         result="fbSourceGraphicAlpha"
         in="fbSourceGraphic"
         values="0 0 0 -1 0 0 0 0 -1 0 0 0 0 -1 0 0 0 0 1 0"
         id="feColorMatrix598" />
      <feGaussianBlur
         id="feGaussianBlur599"
         stdDeviation="0.21 0.01"
         result="fbSourceGraphic"
         in="fbSourceGraphic" />
      <feColorMatrix
         result="fbSourceGraphicAlpha"
         in="fbSourceGraphic"
         values="0 0 0 -1 0 0 0 0 -1 0 0 0 0 -1 0 0 0 0 1 0"
         id="feColorMatrix662" />
      <feGaussianBlur
         id="feGaussianBlur662"
         stdDeviation="0.41 0.01"
         result="blur"
         in="fbSourceGraphic" />
    </filter>
    <filter
       style="color-interpolation-filters:sRGB;"
       inkscape:label="Blur"
       id="filter584"
       x="-0.0089986996"
       y="-0.021379259"
       width="1.0179974"
       height="1.0427585">
      <feGaussianBlur
         stdDeviation="0.21 0.01"
         result="fbSourceGraphic"
         id="feGaussianBlur584" />
      <feColorMatrix
         result="fbSourceGraphicAlpha"
         in="fbSourceGraphic"
         values="0 0 0 -1 0 0 0 0 -1 0 0 0 0 -1 0 0 0 0 1 0"
         id="feColorMatrix599" />
      <feGaussianBlur
         id="feGaussianBlur600"
         stdDeviation="0.21 0.01"
         result="fbSourceGraphic"
         in="fbSourceGraphic" />
      <feColorMatrix
         result="fbSourceGraphicAlpha"
         in="fbSourceGraphic"
         values="0 0 0 -1 0 0 0 0 -1 0 0 0 0 -1 0 0 0 0 1 0"
         id="feColorMatrix663" />
      <feGaussianBlur
         id="feGaussianBlur663"
         stdDeviation="0.41 0.01"
         result="blur"
         in="fbSourceGraphic" />
    </filter>
  </defs>
  <g
     inkscape:label="Layer 1"
     inkscape:groupmode="layer"
     id="layer1"
     style="display:inline">
    <path
       id="path126"
       style="font-size:22.6195px;font-family:'8BIT WONDER';-inkscape-font-specification:'8BIT WONDER';letter-spacing:13.2292px;display:inline;fill:#16adff;fill-opacity:1;stroke-width:0.942479;filter:url(#filter569)"
       d="m 33.844964,136.16637 v 3.36775 h 1.5906 v 1.7539 1.61334 0.8046 h 1.885156 v 1.97766 1.79214 h -1.885156 v 2.33887 2.32389 h -1.653646 v 2.87735 h 7.539592 v -2.87735 h 1.653646 v -2.32389 -2.33887 h 3.770312 v 2.33887 2.32389 h -1.653645 v 2.87735 h 7.539591 v -2.87735 h 1.653646 v -2.32389 -2.33887 h -1.884639 v -1.79214 -1.97766 h 1.884639 v -0.8046 -1.61334 -1.7539 h -1.590601 v -3.36775 h -7.539591 v 3.36775 h 1.5906 v 1.7539 1.61334 0.8046 h -3.770312 v -0.8046 -1.61334 -1.7539 h -1.590601 v -3.36775 z m 35.848458,0 v 3.36775 h 1.590601 v 1.7539 1.61334 2.78226 4.13101 2.32389 h -1.653646 v 2.87735 h 7.540109 v -2.87735 h 1.653645 v -2.32389 -2.33887 h 3.769796 v 2.33887 2.32389 h -1.653646 v 2.87735 h 7.540109 v -2.87735 h 1.653646 v -2.32389 -2.33887 h -1.885157 v -1.79214 -1.97766 h 1.885157 v -0.8046 -1.61334 -1.7539 h -1.590601 v -1.48311 h -1.885156 v -1.88464 z m 37.734128,0 v 1.88464 h -1.88515 v 1.48311 h 1.5906 v 1.7539 1.61334 2.78226 4.13101 2.32389 h -1.65365 v 2.87735 h 7.53959 v -2.87735 h 1.65365 v -2.32389 -2.33887 h 3.77031 v 2.33887 2.32389 h -1.65364 v 2.87735 h 7.53959 v -2.87735 h 1.65364 v -2.32389 -4.13101 -2.78226 -1.61334 -1.7539 h -1.5906 v -1.48311 h -1.88515 v -1.88464 z m 33.96331,0 v 3.36775 h 1.5906 v 1.7539 1.61334 2.68976 h 1.88515 v 0.0925 1.79214 h 3.7698 v 2.33887 2.32389 h -1.65365 v 2.87735 h 7.54011 v -2.87735 h 1.65365 v -2.32389 -2.33887 h 3.76979 v -1.79214 -0.0925 h 1.88516 v -2.68976 -1.61334 -1.7539 h -1.5906 v -3.36775 h -7.54011 v 3.36775 h 1.5906 v 1.7539 1.61334 0.8046 h -3.76979 v -0.8046 -1.61334 -1.7539 h -1.5906 v -3.36775 z m 61.00609,0 v 1.88464 h -1.88515 v 1.48311 h 1.5906 v 1.7539 1.61334 2.78226 4.13101 2.32389 h -1.65365 v 0.99219 h 1.88516 v 1.88516 h 15.0797 v -1.88516 h 1.88516 v -0.99219 h 1.65364 v -2.32389 -4.13101 -2.78226 -1.61334 -1.7539 h -1.5906 v -1.48311 h -1.88516 v -1.88464 z m 35.84898,0 v 1.88464 h -1.88516 v 1.48311 h 1.5906 v 1.7539 1.61334 2.68976 h 1.88516 v 0.0925 1.79214 h 9.42475 v 2.33887 1.43144 h -11.30991 v 0.89245 h -1.65364 v 2.87735 h 16.96434 v -1.88516 h 1.88515 v -0.99219 h 1.65365 v -2.32389 -4.13101 -0.0925 h -1.88516 v -1.88516 h -9.42474 v -0.8046 -1.61334 -1.35185 h 11.3099 v -0.40205 h -1.5906 v -3.36775 z m -159.421799,3.7698 h 3.769796 v 1.35185 1.61334 0.8046 h -3.769796 v -0.8046 -1.61334 z m 35.848459,0 h 3.77031 v 1.35185 1.61334 0.8046 h -3.77031 v -0.8046 -1.61334 z m 94.96992,0 h 3.76979 v 1.35185 1.61334 2.78226 4.13101 1.43144 h -3.76979 v -1.43144 -4.13101 -2.78226 -1.61334 z m -32.5112,17.11523 v 1.44797 h 10.13375 v -1.44797 z"
       transform="matrix(1,0,-0.11796484,1,17.380099,0)" />
    <path
       id="path132"
       style="font-size:22.6195px;font-family:'8BIT WONDER';-inkscape-font-specification:'8BIT WONDER';letter-spacing:13.2292px;display:inline;fill:#ff007c;fill-opacity:1;stroke-width:0.942479;filter:url(#filter570)"
       d="m 36.424652,136.16637 v 3.36775 h 1.5906 v 1.7539 1.61334 0.8046 h 1.885156 v 1.97766 1.79214 h -1.885156 v 2.33887 2.32389 h -1.653646 v 2.87735 h 7.539592 v -2.87735 h 1.653646 v -2.32389 -2.33887 h 3.770312 v 2.33887 2.32389 h -1.653645 v 2.87735 h 7.539591 v -2.87735 h 1.653646 v -2.32389 -2.33887 h -1.884639 v -1.79214 -1.97766 h 1.884639 v -0.8046 -1.61334 -1.7539 h -1.590601 v -3.36775 h -7.539591 v 3.36775 h 1.5906 v 1.7539 1.61334 0.8046 h -3.770312 v -0.8046 -1.61334 -1.7539 h -1.590601 v -3.36775 z m 35.848458,0 v 3.36775 h 1.590601 v 1.7539 1.61334 2.78226 4.13101 2.32389 h -1.653646 v 2.87735 h 7.540109 v -2.87735 h 1.653645 v -2.32389 -2.33887 h 3.769796 v 2.33887 2.32389 h -1.653646 v 2.87735 h 7.540109 v -2.87735 h 1.653646 v -2.32389 -2.33887 h -1.885157 v -1.79214 -1.97766 h 1.885157 v -0.8046 -1.61334 -1.7539 h -1.590601 v -1.48311 h -1.885156 v -1.88464 z m 37.73413,0 v 1.88464 h -1.88515 v 1.48311 h 1.5906 v 1.7539 1.61334 2.78226 4.13101 2.32389 h -1.65365 v 2.87735 h 7.53959 v -2.87735 h 1.65365 v -2.32389 -2.33887 h 3.77031 v 2.33887 2.32389 h -1.65364 v 2.87735 h 7.53959 v -2.87735 h 1.65364 v -2.32389 -4.13101 -2.78226 -1.61334 -1.7539 h -1.5906 v -1.48311 h -1.88515 v -1.88464 z m 33.96331,0 v 3.36775 h 1.5906 v 1.7539 1.61334 2.68976 h 1.88515 v 0.0925 1.79214 h 3.7698 v 2.33887 2.32389 h -1.65365 v 2.87735 h 7.54011 v -2.87735 h 1.65365 v -2.32389 -2.33887 h 3.76979 v -1.79214 -0.0925 h 1.88516 v -2.68976 -1.61334 -1.7539 h -1.5906 v -3.36775 h -7.54011 v 3.36775 h 1.5906 v 1.7539 1.61334 0.8046 h -3.76979 v -0.8046 -1.61334 -1.7539 h -1.5906 v -3.36775 z m 61.00609,0 v 1.88464 h -1.88515 v 1.48311 h 1.5906 v 1.7539 1.61334 2.78226 4.13101 2.32389 h -1.65365 v 0.99219 h 1.88516 v 1.88516 h 15.0797 v -1.88516 h 1.88516 v -0.99219 h 1.65364 v -2.32389 -4.13101 -2.78226 -1.61334 -1.7539 h -1.5906 v -1.48311 h -1.88516 v -1.88464 z m 35.84898,0 v 1.88464 h -1.88516 v 1.48311 h 1.5906 v 1.7539 1.61334 2.68976 h 1.88516 v 0.0925 1.79214 h 9.42475 v 2.33887 1.43144 h -11.30991 v 0.89245 h -1.65364 v 2.87735 h 16.96434 v -1.88516 h 1.88515 v -0.99219 h 1.65365 v -2.32389 -4.13101 -0.0925 h -1.88516 v -1.88516 h -9.42474 v -0.8046 -1.61334 -1.35185 h 11.3099 v -0.40205 h -1.5906 v -3.36775 z m -159.421801,3.7698 h 3.769796 v 1.35185 1.61334 0.8046 h -3.769796 v -0.8046 -1.61334 z m 35.848461,0 h 3.77031 v 1.35185 1.61334 0.8046 h -3.77031 v -0.8046 -1.61334 z m 94.96992,0 h 3.76979 v 1.35185 1.61334 2.78226 4.13101 1.43144 h -3.76979 v -1.43144 -4.13101 -2.78226 -1.61334 z M 179.711,157.0514 v 1.44797 h 10.13375 v -1.44797 z"
       transform="matrix(1,0,-0.11796484,1,17.380099,0)" />
    <path
       id="path119"
       style="font-size:22.6195px;font-family:'8BIT WONDER';-inkscape-font-specification:'8BIT WONDER';letter-spacing:13.2292px;display:inline;fill:#580092;fill-opacity:1;stroke-width:0.942479;filter:url(#filter571)"
       d="m 35.435364,142.90136 v 0.8046 h 1.885156 v 1.97766 h 15.0797 v -1.97766 h 1.88464 v -0.8046 h -7.539592 v 0.8046 h -3.770312 v -0.8046 z m 35.848459,0 v 2.78226 h 16.964856 v -1.97766 h 1.885157 v -0.8046 h -7.540109 v 0.8046 h -3.769796 v -0.8046 z m 35.848977,0 v 2.78226 h 18.84949 v -2.78226 h -7.53959 v 0.8046 h -3.77031 v -0.8046 z m 35.84845,0 v 2.68976 h 1.88516 v 0.0925 h 15.0797 v -0.0925 h 1.88516 v -2.68976 h -7.54011 v 0.8046 h -3.7698 v -0.8046 z m 59.12095,0 v 2.78226 h 7.5401 v -2.78226 z m 11.3099,0 v 2.78226 h 7.54011 v -2.78226 z m 24.53907,0 v 2.68976 h 1.88516 v 0.0925 h 16.96434 v -0.0925 h -1.88516 v -1.88516 h -9.42475 v -0.8046 z"
       transform="matrix(1,0,-0.11796484,1,17.380099,0)" />
    <path
       id="path120"
       style="font-size:22.6195px;font-family:'8BIT WONDER';-inkscape-font-specification:'8BIT WONDER';letter-spacing:13.2292px;display:inline;fill:#580092;fill-opacity:1;stroke-width:0.942479;filter:url(#filter572)"
       d="m 37.32052,145.68362 v 1.79214 h -1.885156 v 2.33887 h 7.539592 v -2.33887 h 3.770312 v 2.33887 h 7.539592 v -2.33887 h -1.88464 v -1.79214 z m 33.963303,0 v 4.13101 h 7.540108 v -2.33887 h 3.769796 v 2.33887 h 7.540109 v -2.33887 h -1.885157 v -1.79214 z m 35.848977,0 v 4.13101 h 7.53959 v -2.33887 h 3.77031 v 2.33887 h 7.53959 v -4.13101 z m 37.73361,0 v 1.79214 h 3.7698 v 2.33887 h 7.5401 v -2.33887 h 3.7698 v -1.79214 z m 57.23579,0 v 4.13101 h 7.5401 v -4.13101 z m 11.3099,0 v 4.13101 h 7.54011 v -4.13101 z m 26.42423,0 v 1.79214 h 9.42475 v 2.33887 h 7.53959 v -4.13101 z"
       transform="matrix(1,0,-0.11796484,1,17.380099,0)" />
    <path
       id="path121"
       style="font-size:22.6195px;font-family:'8BIT WONDER';-inkscape-font-specification:'8BIT WONDER';letter-spacing:13.2292px;display:inline;fill:#580092;fill-opacity:1;stroke-width:0.942479;filter:url(#filter573)"
       d="m 35.435364,141.28802 v 1.61334 h 7.539592 v -1.61334 z m 11.309904,0 v 1.61334 h 7.539592 v -1.61334 z m 24.538555,0 v 1.61334 h 7.540108 v -1.61334 z m 11.309904,0 v 1.61334 h 7.540109 v -1.61334 z m 24.539073,0 v 1.61334 h 7.53959 v -1.61334 z m 11.3099,0 v 1.61334 h 7.53959 v -1.61334 z m 24.53855,0 v 1.61334 h 7.54011 v -1.61334 z m 11.30991,0 v 1.61334 h 7.54011 v -1.61334 z m 47.81104,0 v 1.61334 h 7.5401 v -1.61334 z m 11.3099,0 v 1.61334 h 7.54011 v -1.61334 z m 24.53907,0 v 1.61334 h 7.53959 v -1.61334 z"
       transform="matrix(1,0,-0.11796484,1,17.380099,0)" />
    <path
       id="path122"
       style="font-size:22.6195px;font-family:'8BIT WONDER';-inkscape-font-specification:'8BIT WONDER';letter-spacing:13.2292px;display:inline;fill:#580092;fill-opacity:1;stroke-width:0.942479;filter:url(#filter574)"
       d="m 33.781718,152.13852 v 2.87735 h 7.539592 v -2.87735 z m 11.309904,0 v 2.87735 h 7.539592 v -2.87735 z m 24.538555,0 v 2.87735 h 7.540108 v -2.87735 z m 11.309904,0 v 2.87735 h 7.540109 v -2.87735 z m 24.539069,0 v 2.87735 h 7.53959 v -2.87735 z m 11.3099,0 v 2.87735 h 7.53959 v -2.87735 z m 30.19351,0 v 2.87735 h 7.5401 v -2.87735 z m 53.46599,0 v 0.99219 h 1.88515 v 1.88516 h 15.0797 v -1.88516 h 1.88516 v -0.99219 z m 35.84897,0 v 2.87735 h 16.96434 v -1.88516 h 1.88516 v -0.99219 z m -59.16642,4.91288 v 1.44797 h 10.13375 v -1.44797 z"
       transform="matrix(1,0,-0.11796484,1,17.380099,0)" />
    <path
       id="path123"
       style="font-size:22.6195px;font-family:'8BIT WONDER';-inkscape-font-specification:'8BIT WONDER';letter-spacing:13.2292px;display:inline;fill:#580092;fill-opacity:1;stroke-width:0.942479;filter:url(#filter575)"
       d="m 35.435364,149.81463 v 2.32389 h 7.539592 v -2.32389 z m 11.309904,0 v 2.32389 h 7.539592 v -2.32389 z m 24.538555,0 v 2.32389 h 7.540108 v -2.32389 z m 11.309904,0 v 2.32389 h 7.540109 v -2.32389 z m 24.539073,0 v 2.32389 h 7.53959 v -2.32389 z m 11.3099,0 v 2.32389 h 7.53959 v -2.32389 z m 30.19351,0 v 2.32389 h 7.5401 v -2.32389 z m 53.46599,0 v 2.32389 h 18.85001 v -2.32389 h -7.54011 v 1.43144 h -3.7698 v -1.43144 z m 47.15888,0 v 1.43144 h -11.30991 v 0.89245 h 18.8495 v -2.32389 z"
       transform="matrix(1,0,-0.11796484,1,17.380099,0)" />
    <path
       id="path124"
       style="font-size:22.6195px;font-family:'8BIT WONDER';-inkscape-font-specification:'8BIT WONDER';letter-spacing:13.2292px;display:inline;fill:#580092;fill-opacity:1;stroke-width:0.942479;filter:url(#filter576)"
       d="m 35.435364,139.53412 v 1.7539 h 7.539592 v -1.7539 z m 11.309904,0 v 1.7539 h 7.539592 v -1.7539 z m 24.538555,0 v 1.7539 h 7.540108 v -1.35185 h 3.769796 v 1.35185 h 7.540109 v -1.7539 z m 35.848977,0 v 1.7539 h 7.53959 v -1.35185 h 3.77031 v 1.35185 h 7.53959 v -1.7539 z m 35.84845,0 v 1.7539 h 7.54011 v -1.7539 z m 11.30991,0 v 1.7539 h 7.54011 v -1.7539 z m 47.81104,0 v 1.7539 h 7.5401 v -1.35185 h 3.7698 v 1.35185 h 7.54011 v -1.7539 z m 35.84897,0 v 1.7539 h 7.53959 v -1.35185 h 11.30991 v -0.40205 z"
       transform="matrix(1,0,-0.11796484,1,17.380099,0)" />
    <path
       id="path125"
       style="font-size:22.6195px;font-family:'8BIT WONDER';-inkscape-font-specification:'8BIT WONDER';letter-spacing:13.2292px;display:inline;fill:#580092;fill-opacity:1;stroke-width:0.942479;filter:url(#filter577)"
       d="m 33.84511,136.16637 v 3.36775 h 7.539592 v -3.36775 z m 11.309904,0 v 3.36775 h 7.539592 v -3.36775 z m 24.538555,0 v 3.36775 h 18.850013 v -1.48311 h -1.885157 v -1.88464 z m 37.734131,0 v 1.88464 h -1.88515 v 1.48311 h 18.84949 v -1.48311 h -1.88515 v -1.88464 z m 33.9633,0 v 3.36775 h 7.54011 v -3.36775 z m 11.30991,0 v 3.36775 h 7.54011 v -3.36775 z m 49.69619,0 v 1.88464 h -1.88515 v 1.48311 h 18.85001 v -1.48311 h -1.88516 v -1.88464 z m 35.84898,0 v 1.88464 h -1.88516 v 1.48311 h 18.8495 v -3.36775 z"
       transform="matrix(1,0,-0.11796484,1,17.380099,0)" />
    <path
       id="text1"
       style="font-size:22.6195px;font-family:'8BIT WONDER';-inkscape-font-specification:'8BIT WONDER';letter-spacing:13.2292px;display:inline;fill:#00ffff;stroke-width:0.942479;filter:url(#filter578)"
       d="m 37.306251,142.90136 v 0.8046 h 1.885156 v 1.97766 h 15.0797 v -1.97766 h 1.88464 v -0.8046 h -7.539592 v 0.8046 h -3.770312 v -0.8046 z m 35.848459,0 v 2.78226 h 16.964856 v -1.97766 h 1.885157 v -0.8046 h -7.540109 v 0.8046 h -3.769796 v -0.8046 z m 35.84898,0 v 2.78226 h 18.84949 v -2.78226 h -7.53959 v 0.8046 h -3.77031 v -0.8046 z m 35.84845,0 v 2.68976 h 1.88516 v 0.0925 h 15.0797 v -0.0925 h 1.88516 v -2.68976 h -7.54011 v 0.8046 h -3.7698 v -0.8046 z m 59.12095,0 v 2.78226 h 7.5401 v -2.78226 z m 11.3099,0 v 2.78226 h 7.54011 v -2.78226 z m 24.53907,0 v 2.68976 h 1.88516 v 0.0925 h 16.96434 v -0.0925 h -1.88516 v -1.88516 h -9.42475 v -0.8046 z"
       transform="matrix(1,0,-0.11796484,1,17.380099,0)" />
    <path
       id="path102"
       style="font-size:22.6195px;font-family:'8BIT WONDER';-inkscape-font-specification:'8BIT WONDER';letter-spacing:13.2292px;display:inline;fill:#00ffff;stroke-width:0.942479;filter:url(#filter579)"
       d="m 39.191407,145.68362 v 1.79214 h -1.885156 v 2.33887 h 7.539592 v -2.33887 h 3.770312 v 2.33887 h 7.539592 v -2.33887 h -1.88464 v -1.79214 z m 33.963303,0 v 4.13101 h 7.540108 v -2.33887 h 3.769796 v 2.33887 h 7.540109 v -2.33887 h -1.885157 v -1.79214 z m 35.84898,0 v 4.13101 h 7.53959 v -2.33887 h 3.77031 v 2.33887 h 7.53959 v -4.13101 z m 37.73361,0 v 1.79214 h 3.7698 v 2.33887 h 7.5401 v -2.33887 h 3.7698 v -1.79214 z m 57.23579,0 v 4.13101 h 7.5401 v -4.13101 z m 11.3099,0 v 4.13101 h 7.54011 v -4.13101 z m 26.42423,0 v 1.79214 h 9.42475 v 2.33887 h 7.53959 v -4.13101 z"
       transform="matrix(1,0,-0.11796484,1,17.380099,0)" />
    <path
       id="path96"
       style="font-size:22.6195px;font-family:'8BIT WONDER';-inkscape-font-specification:'8BIT WONDER';letter-spacing:13.2292px;display:inline;fill:#00ffff;stroke-width:0.942479;filter:url(#filter580)"
       d="m 37.306251,141.28802 v 1.61334 h 7.539592 v -1.61334 z m 11.309904,0 v 1.61334 h 7.539592 v -1.61334 z m 24.538555,0 v 1.61334 h 7.540108 v -1.61334 z m 11.309904,0 v 1.61334 h 7.540109 v -1.61334 z m 24.539076,0 v 1.61334 h 7.53959 v -1.61334 z m 11.3099,0 v 1.61334 h 7.53959 v -1.61334 z m 24.53855,0 v 1.61334 h 7.54011 v -1.61334 z m 11.30991,0 v 1.61334 h 7.54011 v -1.61334 z m 47.81104,0 v 1.61334 h 7.5401 v -1.61334 z m 11.3099,0 v 1.61334 h 7.54011 v -1.61334 z m 24.53907,0 v 1.61334 h 7.53959 v -1.61334 z"
       transform="matrix(1,0,-0.11796484,1,17.380099,0)" />
    <path
       id="path84"
       style="font-size:22.6195px;font-family:'8BIT WONDER';-inkscape-font-specification:'8BIT WONDER';letter-spacing:13.2292px;display:inline;fill:#00ffff;stroke-width:0.942479;filter:url(#filter581)"
       d="m 35.652605,152.13852 v 2.87735 h 7.539592 v -2.87735 z m 11.309904,0 v 2.87735 h 7.539592 v -2.87735 z m 24.538555,0 v 2.87735 h 7.540108 v -2.87735 z m 11.309904,0 v 2.87735 h 7.540109 v -2.87735 z m 24.539072,0 v 2.87735 h 7.53959 v -2.87735 z m 11.3099,0 v 2.87735 h 7.53959 v -2.87735 z m 30.19351,0 v 2.87735 h 7.5401 v -2.87735 z m 53.46599,0 v 0.99219 h 1.88515 v 1.88516 h 15.0797 v -1.88516 h 1.88516 v -0.99219 z m 35.84897,0 v 2.87735 h 16.96434 v -1.88516 h 1.88516 v -0.99219 z m -59.16642,4.91288 v 1.44797 h 10.13375 v -1.44797 z"
       transform="matrix(1,0,-0.11796484,1,17.380099,0)" />
    <path
       id="path83"
       style="font-size:22.6195px;font-family:'8BIT WONDER';-inkscape-font-specification:'8BIT WONDER';letter-spacing:13.2292px;display:inline;fill:#00ffff;stroke-width:0.942479;filter:url(#filter582)"
       d="m 37.306251,149.81463 v 2.32389 h 7.539592 v -2.32389 z m 11.309904,0 v 2.32389 h 7.539592 v -2.32389 z m 24.538555,0 v 2.32389 h 7.540108 v -2.32389 z m 11.309904,0 v 2.32389 h 7.540109 v -2.32389 z m 24.539076,0 v 2.32389 h 7.53959 v -2.32389 z m 11.3099,0 v 2.32389 h 7.53959 v -2.32389 z m 30.19351,0 v 2.32389 h 7.5401 v -2.32389 z m 53.46599,0 v 2.32389 h 18.85001 v -2.32389 h -7.54011 v 1.43144 h -3.7698 v -1.43144 z m 47.15888,0 v 1.43144 h -11.30991 v 0.89245 h 18.8495 v -2.32389 z"
       transform="matrix(1,0,-0.11796484,1,17.380099,0)" />
    <path
       id="path62"
       style="font-size:22.6195px;font-family:'8BIT WONDER';-inkscape-font-specification:'8BIT WONDER';letter-spacing:13.2292px;display:inline;fill:#00ffff;stroke-width:0.942479;filter:url(#filter583)"
       d="m 37.306251,139.53412 v 1.7539 h 7.539592 v -1.7539 z m 11.309904,0 v 1.7539 h 7.539592 v -1.7539 z m 24.538555,0 v 1.7539 h 7.540108 v -1.35185 h 3.769796 v 1.35185 h 7.540109 v -1.7539 z m 35.84898,0 v 1.7539 h 7.53959 v -1.35185 h 3.77031 v 1.35185 h 7.53959 v -1.7539 z m 35.84845,0 v 1.7539 h 7.54011 v -1.7539 z m 11.30991,0 v 1.7539 h 7.54011 v -1.7539 z m 47.81104,0 v 1.7539 h 7.5401 v -1.35185 h 3.7698 v 1.35185 h 7.54011 v -1.7539 z m 35.84897,0 v 1.7539 h 7.53959 v -1.35185 h 11.30991 v -0.40205 z"
       transform="matrix(1,0,-0.11796484,1,17.380099,0)" />
    <path
       id="path61"
       style="font-size:22.6195px;font-family:'8BIT WONDER';-inkscape-font-specification:'8BIT WONDER';letter-spacing:13.2292px;display:inline;fill:#00ffff;stroke-width:0.942479;filter:url(#filter584)"
       d="m 35.715997,136.16637 v 3.36775 h 7.539592 v -3.36775 z m 11.309904,0 v 3.36775 h 7.539592 v -3.36775 z m 24.538555,0 v 3.36775 h 18.850013 v -1.48311 h -1.885157 v -1.88464 z m 37.734134,0 v 1.88464 h -1.88515 v 1.48311 h 18.84949 v -1.48311 h -1.88515 v -1.88464 z m 33.9633,0 v 3.36775 h 7.54011 v -3.36775 z m 11.30991,0 v 3.36775 h 7.54011 v -3.36775 z m 49.69619,0 v 1.88464 h -1.88515 v 1.48311 h 18.85001 v -1.48311 h -1.88516 v -1.88464 z m 35.84898,0 v 1.88464 h -1.88516 v 1.48311 h 18.8495 v -3.36775 z"
       transform="matrix(1,0,-0.11796484,1,17.380099,0)" />
  </g>
</svg>
